<svg xmlns="http://www.w3.org/2000/svg" viewBox="0 0 500 500" xml:space="preserve">
  <path style="fill:#c2bebc" d="m74.676 268.038-.201-.14.755-1.07.191.133zm-4.706-4.137a38.5 38.5 0 0 1-3.704-4.711l1.088-.729a37 37 0 0 0 3.577 4.55zm-6.679-9.9a43 43 0 0 1-2.238-5.547l1.246-.404c.59 1.82 1.321 3.63 2.17 5.379zm219.144-.04-1.273-.31c.005-.021.523-2.158 1.179-5.747l1.288.235c-.663 3.631-1.19 5.8-1.194 5.822M59.629 242.636a35 35 0 0 1-.477-5.689l.001-.291 1.31.012-.001.28c0 1.785.154 3.628.459 5.477zm224.966-.337-1.296-.192c.286-1.928.546-3.889.771-5.826l1.301.151a190 190 0 0 1-.776 5.867m-223.52-11.353-1.281-.271a27 27 0 0 1 1.889-5.724l1.189.548a26 26 0 0 0-1.797 5.447m224.883-.404-1.306-.109c.163-1.964.294-3.937.388-5.862l1.309.064c-.095 1.94-.227 3.928-.391 5.907M65.848 220.6l-1.036-.802a29 29 0 0 1 4.165-4.343l.849.998a27.7 27.7 0 0 0-3.978 4.147m220.682-1.883-1.31-.016a149 149 0 0 0-.048-5.871l1.309-.038a141 141 0 0 1 .049 5.925m-211.996-5.626-.685-1.117a41 41 0 0 1 5.309-2.756l.515 1.205a40 40 0 0 0-5.139 2.668m10.62-4.5-.313-1.272a42 42 0 0 1 5.897-.994l.13 1.304a40.5 40.5 0 0 0-5.714.962m17.424-1.252-1.441-.007c-1.497-.009-2.974-.018-4.442.002l-.018-1.31c1.477-.02 2.962-.011 4.468-.002q.716.005 1.438.007zm5.921-.079-.052-1.309a69 69 0 0 0 5.818-.46l.162 1.3a70 70 0 0 1-5.928.469m176.374-.287a114 114 0 0 0-.58-5.835l1.3-.164c.24 1.912.438 3.897.587 5.901zm-164.58-1.218-.296-1.276a56 56 0 0 0 5.592-1.614l.428 1.238a57 57 0 0 1-5.724 1.652m11.249-3.87-.544-1.191a72 72 0 0 0 5.203-2.646l.64 1.144a74 74 0 0 1-5.299 2.693m10.373-5.774-.718-1.095a80 80 0 0 0 4.759-3.379l.797 1.04a81 81 0 0 1-4.838 3.434m141.48-.762a87 87 0 0 0-1.258-5.716l1.27-.325a89 89 0 0 1 1.276 5.801zm-132.062-6.441-.865-.984a109 109 0 0 0 4.286-3.987l.917.936a110 110 0 0 1-4.338 4.035m129.138-4.877a65 65 0 0 0-2.126-5.434l1.196-.533a66 66 0 0 1 2.17 5.543zm-120.656-3.376-.948-.904c1.247-1.31 2.484-2.637 3.68-3.92l.346-.371.958.893-.345.371a479 479 0 0 1-3.691 3.931m115.89-7.247a49 49 0 0 0-3.192-4.853l1.049-.785a51 51 0 0 1 3.278 4.982zm-107.819-1.332-.943-.909a131 131 0 0 1 4.19-4.177l.901.951a128 128 0 0 0-4.148 4.135m100.862-7.933a42 42 0 0 0-4.318-3.862l.804-1.035a44 44 0 0 1 4.452 3.982zm-92.342-.074-.83-1.013a63 63 0 0 1 4.764-3.556l.732 1.086a62 62 0 0 0-4.666 3.483m9.647-6.481-.615-1.156a57 57 0 0 1 5.391-2.515l.492 1.214a56 56 0 0 0-5.268 2.457m73.569-.536a44 44 0 0 0-5.203-2.553l.5-1.21a46 46 0 0 1 5.356 2.629zm-62.81-3.835-.372-1.256a71 71 0 0 1 5.758-1.439l.265 1.283a69 69 0 0 0-5.651 1.412m52.119-.603a56 56 0 0 0-5.675-1.262l.218-1.292c1.994.337 3.949.772 5.81 1.292zm-40.715-1.779-.173-1.298a99 99 0 0 1 5.892-.597l.094 1.307a98 98 0 0 0-5.813.588m29.245-.193a192 192 0 0 0-5.858-.427l.075-1.308c1.91.109 3.894.253 5.898.43zm-11.724-.66a138 138 0 0 0-5.863-.003l-.028-1.309a139 139 0 0 1 5.919.003z"/>
  <path style="fill:#78c2ff" d="M185.056 208.397h.729v87.185h-.729z"/>
  <path style="fill:#78c2ff" d="M163.256 216.919h109.75v.729h-109.75z"/>
  <path style="fill:#4da8f2" d="M174.247 212.37a5.89 5.89 0 0 1-5.882-5.882 5.89 5.89 0 0 1 5.882-5.883 5.89 5.89 0 0 1 5.883 5.883 5.89 5.89 0 0 1-5.883 5.882m0-10.89a5.014 5.014 0 0 0-5.008 5.008 5.014 5.014 0 0 0 5.008 5.008 5.014 5.014 0 0 0 5.008-5.008 5.013 5.013 0 0 0-5.008-5.008m226.729 181.946h-4.778v-.655h4.123v-4.124h.655zm-64.972-.655h50.935v.655h-50.935zm-4.63.655h-4.777v-4.779h.654v4.124h4.123zm-4.777-233.391h.654v219.987h-.654zm.654-4.314h-.654v-4.777h4.777v.655h-4.123zm13.384-4.777h50.934v.655h-50.934zm60.341 4.777h-.655v-4.122h-4.123v-.655h4.778zm-.655 8.628h.654v219.986h-.654z"/>
  <path style="fill:#d6d6d6" d="m88.3 276.156-20.556-9.405 6.723-.993z"/>
  <path style="fill:#e8e8e8" d="m88.3 276.156-6.84-9.243-5.089.276z"/>
  <path style="fill:#c2c2c2" d="m72.471 268.914-.193 2.51 16.022 4.732z"/>
  <path style="fill:#99dca9" d="M444.967 262.026h-23.936v21.002l3.654-3.654h20.282z"/>
  <path style="fill:#e8734d" d="M271.084 109.583H56.343a.545.545 0 0 1-.265-1.023l47.146-26.227a.54.54 0 0 1 .35-.062l167.595 26.227a.546.546 0 0 1-.085 1.085m-212.637-1.092h205.619L103.59 83.378z"/>
  <path style="fill:#285173" d="M383.556 168.585H332.07a.545.545 0 0 1-.213-1.048l25.743-10.924a.54.54 0 0 1 .426 0l25.743 10.924a.545.545 0 0 1-.213 1.048m-48.803-1.092h46.119l-23.06-9.786z"/>
  <path style="fill:#3fa859" d="M403.121 245.107v138.815h-53.369V267.157z"/>
  <path style="fill:#308d47" d="M384.497 167.002v34.006l-53.369 22.05v-56.056z"/>
  <path style="fill:#e8734d" d="M113.5 333.346H93.478V81.5H113.5zm-17.402-2.619h14.783V84.12H96.098z"/>
  <path style="fill:#285173" d="M357.813 159.073a4.08 4.08 0 0 1-4.077-4.078h1.092c0 1.646 1.339 2.986 2.985 2.986s2.985-1.339 2.985-2.986-1.339-2.986-2.985-2.986h-.546v-25.941h1.092v24.885a4.084 4.084 0 0 1 3.531 4.041c0 2.25-1.83 4.079-4.077 4.079"/>
  <path transform="rotate(-33.075 103.501 326.396)" style="fill:#e8734d" d="M93.104 325.602h20.771v1.529H93.104z"/>
  <path transform="rotate(-33.091 103.515 288.062)" style="fill:#e8734d" d="M93.104 287.273h20.771v1.528H93.104z"/>
  <path transform="rotate(-33.102 103.463 249.689)" style="fill:#e8734d" d="M93.104 248.944h20.771v1.528H93.104z"/>
  <path transform="rotate(-33.091 103.511 211.395)" style="fill:#e8734d" d="M93.104 210.614h20.771v1.528H93.104z"/>
  <path transform="rotate(-33.085 103.492 173.048)" style="fill:#e8734d" d="M93.104 172.285h20.771v1.528H93.104z"/>
  <path transform="rotate(-33.091 103.507 134.728)" style="fill:#e8734d" d="M93.104 133.955h20.771v1.528H93.104z"/>
  <path transform="rotate(-33.085 103.49 96.39)" style="fill:#e8734d" d="M93.104 95.626h20.771v1.528H93.104z"/>
  <path transform="rotate(-42.277 65.609 117.996)" style="fill:#e8734d" d="M64.848 106.236h1.528v23.52h-1.528z"/>
  <path transform="rotate(-42.277 119.09 117.997)" style="fill:#e8734d" d="M118.33 106.236h1.528v23.52h-1.528z"/>
  <path transform="rotate(-42.277 172.572 117.998)" style="fill:#e8734d" d="M171.812 106.236h1.528v23.52h-1.528z"/>
  <path transform="rotate(-42.277 226.053 118)" style="fill:#e8734d" d="M225.294 106.236h1.529v23.52h-1.529z"/>
  <path transform="rotate(-42.277 279.527 118)" style="fill:#e8734d" d="M278.776 106.236h1.528v23.52h-1.528z"/>
  <path transform="rotate(-42.277 333.009 118.002)" style="fill:#e8734d" d="M332.259 106.236h1.528v23.52h-1.528z"/>
  <path transform="rotate(-42.277 386.507 118.002)" style="fill:#e8734d" d="M385.741 106.236h1.528v23.52h-1.528z"/>
  <path style="fill:#e8734d" d="M395.726 128.265H55.034v-20.537h340.692zm-338.073-2.62h335.453v-15.298H57.653zm57.071 258.765H92.255v-53.684h22.469zm-19.849-2.62h17.229v-48.444H94.875z"/>
  <path transform="rotate(-33.081 103.493 339.005)" style="fill:#e8734d" d="M91.645 338.211h23.674v1.528H91.645z"/>
  <path transform="rotate(-33.081 103.493 351.67)" style="fill:#e8734d" d="M91.645 350.874h23.674v1.528H91.645z"/>
  <path transform="rotate(-33.06 103.484 364.315)" style="fill:#e8734d" d="M91.645 363.537h23.674v1.529H91.645z"/>
  <path transform="rotate(-33.06 103.483 376.979)" style="fill:#e8734d" d="M91.645 376.201h23.674v1.529H91.645z"/>
  <path style="fill:#4da8f2" d="M304.205 369.69h-48.312V173.851h48.312zm-47.657-.654h47.003v-194.53h-47.003z"/>
  <path style="fill:#64c47b" d="M266.333 188.737h47.657v195.185h-47.657z"/>
  <path style="fill:#3fa859" d="M199.601 234.953h47.658v148.969h-47.658z"/>
  <path style="fill:#3197ed" d="M239.471 375.281h-48.094V225.876h48.094zm-47.658-.436h47.221V226.312h-47.221z"/>
  <path style="fill:#64c47b" d="M132.87 280.263h47.658v103.659H132.87z"/>
  <path style="fill:#35a2ff" d="M171.723 377.017h-48.094V272.921h48.094zm-47.658-.437h47.221V273.357h-47.221z"/>
  <path style="fill:#eea886" d="M402.429 293.905s-.879-1.537.515-5.658c1.348-3.985 6.012-3.624 7.494-1.07 1.482 2.553.981 4.139-1.2 7.021-2.183 2.882-5.904 1.025-6.809-.293m10.834 70.89s.23 1.691.26 1.946c.028.254 2.567-.15 2.567-.15l.205-2.014s-2.715-.02-3.032.218"/>
  <path style="fill:#4da8f2" d="M413.495 366.526s-.805 1.018-1.582 1.464c-.778.444-2.001.62-2.461 1.08-.332.332-1.209 1.762 2.022 1.732 3.231-.028 4.789.203 5.136-.346.346-.548-.501-4.046-.501-4.046s-.792.225-2.614.116"/>
  <path style="fill:#eea886" d="M395.684 364.795s.231 1.691.26 1.946 2.568-.15 2.568-.15l.205-2.014s-2.715-.02-3.033.218"/>
  <path style="fill:#4da8f2" d="M395.917 366.526s-.805 1.018-1.583 1.464c-.777.444-3.641.809-4.101 1.27-.332.332-.885 1.668 3.662 1.543 3.23-.088 4.789.203 5.135-.346s-.501-4.046-.501-4.046-1.003.179-2.612.115"/>
  <path style="fill:#2f4563" d="M412.408 322.66s1.302 4.046 1.13 7.531c-.171 3.486.673 7.301 1.018 10.942.385 4.06 1.96 13.671 2.017 15.842.058 2.172-.244 9.105-.244 9.105l-3.153.076s-2.647-16.802-3.333-18.517-4.087-13.935-4.201-15.308c-.115-1.37 6.766-9.671 6.766-9.671"/>
  <path style="fill:#354c70" d="M399.336 322.239s-1.914 10.695-2.142 12.829c-.229 2.134-.381 10.325-.495 11.659-.114 1.333-.762 17.449-1.372 19.43h3.516s3.609-11.716 3.609-17.259 2.391-12.051 3.934-15.708 5.074-3.744 6.023-10.53c-.001 0-11.789-2.573-13.073-.421"/>
  <path style="fill:#eea886" d="M403.703 294.993s.397 1.154 0 1.977 5.067.33 5.067.33-.247-1.702.467-3.102c.713-1.4-5.534.795-5.534.795"/>
  <path style="fill:#2b3b57" d="M412.661 323.542s-1.965 2.018-13.501-.314l.176-.988 13.115.493z"/>
  <path style="fill:#eea886" d="M402.877 297.238s-2.018.205-2.595.315c-.576.11-4.457-.694-5.253-.776s-4.19-2.408-4.301-2.683c-.109-.275-2.064-5.226-2.175-6.297-.109-1.07-1.904-.518-1.751.221.288 1.379.658 4.729.86 5.7.219 1.049.806 3.424 1.135 3.716.33.292 3.386 2.617 6.379 3.605s5.244 2.443 5.244 2.443h14.747s5.736-8.199 5.86-9.435c.123-1.235-4.007-9.446-4.83-10.476-.824-1.029-2.016.336-2.016.336s2.468 7.24 2.798 8.27c.329 1.029-2.87 5.552-3.749 5.565-.879.015-3.135-.273-4.137-.314-1.002-.042-2.059-.482-2.059-.482z"/>
  <path style="fill:#d4d8e8" d="M396.521 302.715s1.806 1.2 1.97 3.259c.165 2.059.824 5.312 1.153 6.424s-.288 9.183-.371 9.759c-.082.576 11.412 1.946 13.178.576 0 0 .494-7.534.699-9.676.206-2.142 1.194-7.33 1.523-8.029.33-.7 4.324-6.304 4.489-7.042 0 0-2.066-3.295-3.549-3.336 0 0-2.354 2.76-3.122 2.883s-5.474-.738-5.474-.746c0 0-.514.699-3.244-.124 0 0-3.251.367-3.78.435-.641.081-5.093-.56-5.093-.56s-1.786 3.017-1.473 4.54z"/>
  <path style="fill:#eea886" d="M388.657 288.442s-.403-1.909.082-2.457c.276-.313.94-1.138 1.001-1.259.062-.121.774-.531.774-.729s-.698-.44-1.305.121c-.607.562-.986.683-1.229.622s-.592-2.078-.622-2.578c-.03-.501-.224-1.82-.537-1.729s-.298.668-.298.668-.363-1.002-.606-.805c-.242.197-.212.683-.212.683s-.455-.561-.577-.152 0 .775 0 .775-.47-.258-.5.379c-.03.638.137 2.503.47 3.171.334.667 1.583 2.413 1.732 3.095.149.681 1.827.195 1.827.195m25.928-3.352s-1.372-2.306-1.839-2.512-1.125-.322-1.702-.734c-.576-.412-1.338-.755-1.297-.893.041-.137.721-.082 1.448.233.728.316 1.047.163 1.115-.002.068-.164-.388-1.327-.607-1.602-.22-.274-1.784-1.849-1.523-2.082s1.276.632 1.441.811c0 0-.811-1.703-.494-1.785.315-.082.905.521.905.521s-.068-1.455 1.496.906c0 0-.329-.783.151-.521.48.261.947 1.729 1.099 2.471.15.741.836 3.103 1.42 3.672.584.57-1.613 1.517-1.613 1.517"/>
  <path style="fill:#353a3d" d="M409.237 294.198s-.724.063-2.261-.467c-1.537-.531-1.652-3.22-1.984-2.901-.679.65-1.319.201-1.575-.183 0 0 .75-.988.402-1.465-.348-.476-.914-.822-.914-.822s1.081-5.213 6.002-2.838c5.766 2.783.33 8.676.33 8.676"/>
  <path style="fill:#d4d8e8" d="m403.703 296.97.174-.752s3.141-.065 4.854.185l.18.899s-2.193.996-5.208-.332"/>
  <path style="fill:#eea886" d="M404.478 290.172c.285-.475 1.34-.795 1.464.548.097 1.041-1.885 2.179-1.903 1.208s.249-1.442.439-1.756"/>
  <path style="fill:#e55353" d="M388.582 288.008s-1.133.028-1.683.524c0 0-.036.315.092.565 0 0 .982-.458 1.735-.545.001 0-.012-.411-.144-.544"/>
  <path style="fill:#353a3d" d="M387.246 288.29a.488.488 0 1 0 .899.38.488.488 0 0 0-.899-.38"/>
  <path style="fill:#ffb299" d="m397.495 401.376-10.108-31.042h32.787l10.011 30.746-.907.296-9.797-30.088h-30.78l9.701 29.792z"/>
  <path style="fill:#ffb299" d="m378.129 401.376-.907-.296 10.011-30.746h32.787l-10.108 31.042-.906-.296 9.7-29.792h-30.78z"/>
  <path style="fill:#ffb299" d="M422.858 380.669h-38.187v-.954h37.674zm-41.707 9.405h45.075v.954h-45.075z"/>
  <path style="fill:#dedede" d="M407.943 182.645c-1.635 0-3.199.283-4.641.802-1.9-5.426-6.621-9.269-12.146-9.269-6.141 0-11.29 4.749-12.673 11.143a8.4 8.4 0 0 0-3.428-.732c-5.111 0-9.256 4.636-9.256 10.355h55.182c.001-6.793-5.836-12.299-13.038-12.299M201.89 256.412c-1.157 0-2.264.2-3.283.567-1.344-3.839-4.684-6.557-8.592-6.557-4.343 0-7.986 3.36-8.964 7.883a5.9 5.9 0 0 0-2.425-.52c-3.616 0-6.548 3.28-6.548 7.326h39.037c-.002-4.803-4.131-8.699-9.225-8.699m142.67-15.396c-1.509 0-2.953.262-4.283.74-1.754-5.008-6.111-8.555-11.211-8.555-5.668 0-10.421 4.383-11.697 10.285a7.8 7.8 0 0 0-3.164-.676c-4.718 0-8.543 4.279-8.543 9.558h50.933c0-6.27-5.388-11.352-12.035-11.352"/>
  <path style="fill:#1a598c" d="m206.315 417.476-.525-.021 2.639-66.24h-45.635l-2.639 66.261-.525-.021 2.66-66.765h46.685z"/>
  <path style="fill:#1a598c" d="m210.589 417.476-2.639-66.261h-45.636l2.639 66.24-.524.021-2.66-66.786h46.685l2.659 66.765z"/>
  <path style="fill:#1a598c" d="M164.691 395.926h46.16l-2.649-66.514h-46.161z"/>
  <path style="fill:#e3f2ff" d="M204.751 395.926h-46.16l2.649-66.514h46.16z"/>
  <path style="fill:#99dca9" d="M180.86 340.073a7.48 7.48 0 1 0-14.086 5.041 7.48 7.48 0 0 0 14.086-5.041m-5.154 7.8a5.607 5.607 0 1 1-3.777-10.561 5.605 5.605 0 0 1 7.168 3.392 5.606 5.606 0 0 1-3.391 7.169m24.279 43.176h-7.028v-52.524h7.028zm-6.373-.654h5.718V339.18h-5.718zm-4.86.654h-7.028v-38.013h7.028zm-6.372-.654h5.718v-36.703h-5.718zm-5.048.654h-7.028v-30.08h7.028zm-6.373-.654h5.718v-28.772h-5.718z"/>
  <path style="fill:#78c2ff" d="M166.862 391.049h-7.028v-19.334h7.028zm-6.373-.654h5.718V372.37h-5.718z"/>
  <path style="fill:#292c47" d="m162.539 334.48 10.286 5.655 10.33-16.256-12.494-4.34z"/>
  <path style="fill:#e3f2ff" d="m163.191 333.992 9.62 5.287 9.66-15.202-11.684-4.057z"/>
  <path style="fill:#eea886" d="M159.669 331.148s1.79-.855 2.576-1.304c.786-.447 2.807-1.061 2.971-1.208.163-.145 5.992-.505 6.346-.81s.697.714-.813 1.046c-1.511.33-3.613 1.14-3.728 1.73s1.552.732 1.72 1.217c.169.487-.047.378-.286.482-.239.105-1.982-.862-2.749-.588s-1.939-.104-2.526.097c-.588.2-3.445 1.162-3.445 1.162zm13.658 6.947s1.504-1.354 2.231-1.92c.728-.566 2.094-2.231 2.295-2.329s2.81-5.45 3.235-5.664c.425-.215-.402-.937-1.302.358s-2.481 2.962-3.083 2.84c-.601-.122-.084-1.747-.477-2.095s-.374-.103-.565.082.04 2.203-.517 2.819c-.557.615-.656 1.868-1.074 2.344s-2.437 2.793-2.437 2.793z"/>
  <path style="fill:#424773" d="M140.935 410.448s-.326 2.259-.366 2.599c-.041.339-3.619-.201-3.619-.201l-.29-2.689s3.828-.027 4.275.291"/>
  <path style="fill:#292c47" d="M140.607 412.759s1.134 1.36 2.23 1.954 2.82.828 3.468 1.442c.468.442 1.705 2.351-2.85 2.313s-6.751.27-7.238-.462.706-5.399.706-5.399 1.079.387 3.684.152"/>
  <path style="fill:#424773" d="M166.576 410.448s-.325 2.259-.366 2.599c-.041.339-3.619-.201-3.619-.201l-.289-2.689c-.001 0 3.827-.027 4.274.291"/>
  <path style="fill:#292c47" d="M166.248 412.759s1.134 1.36 2.23 1.954 5.132 1.081 5.781 1.694c.468.443 1.247 2.228-5.162 2.061-4.553-.119-6.751.27-7.238-.462s.706-5.399.706-5.399 1.016.414 3.683.152m-22.35-60.338s-3.363 5.343-3.112 10.172-1.219 10.102-1.724 15.146c-.564 5.624-2.868 18.938-2.952 21.946-.083 3.008.358 12.614.358 12.614l4.613.105s3.874-23.276 4.878-25.651c1.003-2.375 5.98-19.307 6.147-21.206.168-1.9-8.208-13.126-8.208-13.126"/>
  <path style="fill:#292c47" d="M161.6 353.145s2.534 13.236 2.868 16.191c.334 2.957.558 14.304.725 16.151.167 1.848 1.115 24.174 2.007 26.918h-5.898s-4.527-16.229-4.527-23.909-3.498-16.694-5.755-21.761c-2.258-5.067-7.426-5.188-8.813-14.588-.001 0 17.513-1.983 19.393.998"/>
  <path style="fill:#eea886" d="M149.509 307.506s4.513-1.687 6.595 1.75c2.081 3.435 1.88 10.313-.395 11.159s-5.693.403-6.857-1.746-2.216-5.259-2.166-7.335c.051-2.077 1.638-3.229 2.823-3.828"/>
  <path style="fill:#eea886" d="M155.219 320.572s-.188 1.218.123 1.818-5.847.616-5.847.616-.5-3.265-1.448-6.024c-.947-2.758 7.172 3.59 7.172 3.59"/>
  <path style="fill:#3a3f47" d="M148.047 316.982s.425.702 2.16.43c1.735-.273 3.851-2.58 4.576-2.834.724-.253.731-.679.731-.679l.454.662.77.049s-.702-2.065.356-2.906c1.059-.843-1.099-6.683-6.662-4.738 0 0-4.273 1.178-4.118 3.608s.777 5.198 1.733 6.408"/>
  <path style="fill:#e2d2ca" d="M155.707 322.318s-.019-1.146-.539-1.257c-.52-.109-5.738-.611-6.376-.36v1.335s1.229.758 6.915.282"/>
  <path style="fill:#eea886" d="M155.399 313.016c-.098-.407-1.134-1.572-1.531-.325s.6 2.925 1.155 2.781c.557-.144.622-1.423.376-2.456"/>
  <path style="fill:#323657" d="M176.418 335.869h-.008c.035.016.041.017.008 0"/>
  <path style="fill:#e8734d" d="M140.105 365.148s2.768.814 7.488 1.335c4.72.52 16.513-.189 16.587-.745.075-.558-2.537-20.765-2.388-21.806.148-1.04.228-4.747.228-4.747.059 1.016 1.093 5.165 2.343 7.428.452.817 1.966 3.379 2.696 2.796 3.533-2.82 9.004-13.45 9.351-13.54-.292-.127-2.593-1.187-2.915-1.294-.283-.095-2.832 2.604-4.376 4.277-.688.745-1.177 1.287-1.177 1.287-.446-1.004-2.071-7.324-2.575-9.512-1.139-4.934-.963-5.139-.963-5.139-3.453-1.045-8.694-3.171-8.694-3.171l-6.916-.282s-6.347 1.398-8.847 2.527c-.237.106-.238 5.661-.889 7.118l2.073 4.373s1.197 8.66 1.445 12.512c.112 1.77-2.471 16.583-2.471 16.583"/>
  <path style="fill:#e8734d" d="M138.769 338.895c.181.583 1.001 1.075 1.533 1.291.341.138.723.183 1.107.111l.271-.05v-.001l4.74-.879s1.037-11.943-6.475-14.804c-.199.065-2.835 8.985-1.176 14.332"/>
  <path style="fill:#ad563a" d="M140.302 340.185c.341.138.723.183 1.107.111l.271-.05v-.001l-.467-6.103zm27.638-.045.579 2.453s.628-2.462.598-3.74c-.688.745-1.177 1.287-1.177 1.287"/>
  <path style="fill:#3a3f47" d="M148.224 307.91s-5.679.576-.101 9.198z"/>
  <path style="fill:#292c47" d="m178.399 323.007.602-1.033-4.736-1.634-.601 1.027z"/>
  <path style="fill:#308d47" d="m313.99 211.395-47.657-9.052v-13.606h47.657z"/>
  <path style="fill:#64c47b" d="M299.423 207.994H280.9a2.556 2.556 0 0 1-2.555-2.554v-10.004a2.555 2.555 0 0 1 2.555-2.554h18.522a2.553 2.553 0 0 1 2.554 2.554v10.004a2.553 2.553 0 0 1-2.553 2.554"/>
  <path style="fill:#5c544d" d="M259.535 302.613s-.548 2.154-.623 2.477c-.074.325-3.452-.568-3.452-.568l.004-2.634c0 .001 3.676.37 4.071.725"/>
  <path style="fill:#3c4145" d="M258.979 304.817s.945 1.435 1.936 2.124c.99.689 4.812 1.578 5.37 2.24.402.479.963 2.287-5.169 1.462-4.357-.587-6.506-.438-6.898-1.198s1.243-5.158 1.243-5.158.932.507 3.518.53"/>
  <path transform="rotate(-84.417 263.803 320.033)" style="fill:#2e8cdb" d="M182.52 319.272h162.582v1.55H182.52z"/>
  <path transform="rotate(-84.417 238.85 317.612)" style="fill:#2e8cdb" d="M157.567 316.851H320.15v1.55H157.567z"/>
  <path transform="rotate(-84.468 258.972 240.812)" style="fill:#2e8cdb" d="M258.186 228.267h1.55v25.069h-1.55z"/>
  <path transform="rotate(-84.468 257.837 252.415)" style="fill:#2e8cdb" d="M257.06 239.87h1.549v25.07h-1.549z"/>
  <path transform="rotate(-84.468 256.727 264.02)" style="fill:#2e8cdb" d="M255.934 251.473h1.55v25.07h-1.55z"/>
  <path transform="rotate(-84.468 255.585 275.622)" style="fill:#2e8cdb" d="M254.808 263.076h1.55v25.07h-1.55z"/>
  <path transform="rotate(-84.468 254.459 287.225)" style="fill:#2e8cdb" d="M253.682 274.679h1.55v25.07h-1.55z"/>
  <path transform="rotate(-84.468 253.349 298.83)" style="fill:#2e8cdb" d="M252.556 286.282h1.55v25.07h-1.55z"/>
  <path transform="rotate(-84.468 252.204 310.431)" style="fill:#2e8cdb" d="M251.43 297.885h1.55v25.07h-1.55z"/>
  <path transform="rotate(-84.468 251.099 322.038)" style="fill:#2e8cdb" d="M250.303 309.488h1.551v25.07h-1.551z"/>
  <path transform="rotate(-84.468 249.954 333.638)" style="fill:#2e8cdb" d="M249.178 321.091h1.55v25.07h-1.55z"/>
  <path transform="rotate(-84.468 248.828 345.242)" style="fill:#2e8cdb" d="M248.052 332.694h1.549v25.07h-1.549z"/>
  <path transform="rotate(-84.434 247.696 356.826)" style="fill:#2e8cdb" d="M246.925 344.297h1.55v25.07h-1.55z"/>
  <path transform="rotate(-84.434 246.57 368.428)" style="fill:#2e8cdb" d="M245.799 355.9h1.55v25.07h-1.55z"/>
  <path transform="rotate(-84.428 245.448 380.03)" style="fill:#2e8cdb" d="M244.674 367.503h1.549v25.07h-1.549z"/>
  <path transform="rotate(-84.428 245.448 380.03)" style="fill:#2e8cdb" d="M244.674 367.503h1.549v25.07h-1.549z"/>
  <path transform="rotate(-84.468 244.34 391.66)" style="fill:#2e8cdb" d="M243.547 379.106h1.55v25.07h-1.55z"/>
  <path style="fill:#3c4145" d="M263.702 257.256s2.458 9.127 3.107 12.39c.564 2.843 1.7 10.414 1.861 12.214s-7.256 19.224-8.027 22.371l-6.757-1.085s7.129-18.135 5.27-22.164c-2.767-5.993-3.126-5.813-5.306-10.75-2.179-4.937-7.167-5.054-8.507-14.214 0 0 16.546-1.667 18.359 1.238"/>
  <path style="fill:#eea886" d="M251.686 212.91s4.486-1.676 6.556 1.74 1.869 10.254-.393 11.095-5.659.401-6.817-1.736-2.203-5.227-2.153-7.292c.051-2.066 1.629-3.211 2.807-3.807"/>
  <path style="fill:#eea886" d="M257.097 225.535s-.182 1.176.118 1.756c.3.579-5.643.594-5.643.594s-.482-3.151-1.397-5.814c-.916-2.663 6.922 3.464 6.922 3.464"/>
  <path style="fill:#d88a51" d="M250.174 222.071s.41.677 2.085.414 3.717-2.49 4.416-2.735.706-.655.706-.655l.438.639.743.047s-.678-1.993.344-2.805c1.021-.813-1.061-6.45-6.431-4.573 0 0-4.124 1.137-3.974 3.482s.75 5.017 1.673 6.186"/>
  <path style="fill:#eea886" d="M257.27 218.242c-.094-.394-1.094-1.518-1.477-.314s.579 2.823 1.115 2.685c.536-.139.6-1.374.362-2.371"/>
  <path style="fill:#d4d8e8" d="M240.156 242.69c.065.782 1.071 1.898 2.856 1.898l4.275.146s3.466-11.203-3.036-15.476c-.2.02-4.546 8.032-4.095 13.432"/>
  <path style="fill:#3c4145" d="M254.218 309.445c.393.76 2.542.611 6.898 1.198 1.19.159 2.129.221 2.865.211l.254-2.62c-1.274-.444-2.757-.901-3.32-1.294-.99-.688-1.936-2.123-1.936-2.123-2.587-.023-3.519-.53-3.519-.53s-1.634 4.398-1.242 5.158"/>
  <path style="fill:#d4d8e8" d="M257.101 226.949s-3.659-.852-5.722-.155l-.311.288s-.627 1.202 1.733 1.305c2.359.103 6.067.275 4.3-1.438"/>
  <path style="fill:#5c544d" d="M242.802 312.688s-.549 2.154-.623 2.478c-.075.324-3.452-.568-3.452-.568l.003-2.636c-.001 0 3.676.37 4.072.726"/>
  <path style="fill:#3c4145" d="M245.343 256.018s-1.231 5.08-1.596 10.166c-.337 4.7-.95 9.855-1.438 14.772-.544 5.48-2.094 14.339-2.175 17.27-.081 2.932-2.549 15.743-2.549 15.743l6.312.725s4.101-22.64 5.069-24.955c.968-2.313 5.771-18.813 5.932-20.664s-9.555-13.057-9.555-13.057m-3.098 58.874s.946 1.435 1.936 2.124 4.812 1.578 5.37 2.24c.403.479.963 2.288-5.17 1.462-4.356-.587-6.506-.439-6.898-1.198s1.243-5.158 1.243-5.158.933.507 3.519.53"/>
  <path style="fill:#d4d8e8" d="M264.979 268.656c.537-.077-1.335-16.102-1.192-17.106.097-.67.081-5.878.042-9.125l.586-3.286c.326-.237.764-.511 1.286-.813a58 58 0 0 1 2.969-1.573 29 29 0 0 1-.259-1.744c-.346-3.521-2.757-4.898-5.303-5.949-2.647-1.089-6.008-2.111-6.008-2.111h-5.401c-1.588.317-6.059 1.343-7.447 2.31l.734 15.398.001.01.002.02c.331 2.166.679 4.722.795 6.513.048.731-.789 4.66-1.226 8.266l-1.527 8.628c.001-.001.884 3.574 21.948.562"/>
  <path style="fill:#877373" d="m289.639 210.627.425.005.022-1.886-9.55-1.566.052-4.407 1.648.019.005-.425-2.074-.024-.061 5.197 9.55 1.567z"/>
  <path transform="matrix(-.9999 -.0117 0 117 -1 577.223 408.706)" style="fill:#e3dddd" d="M282.055 200.221h15.506v4.885h-15.506z"/>
  <path transform="rotate(-180 289.848 217.435)" style="fill:#877373" d="M288.785 210.281h2.126v14.307h-2.126z"/>
  <path style="fill:#eea886" d="M292.553 218.719s-.318.395-.542.5c0 0-.422.159-.715.29a2 2 0 0 0-.222.111c-.205.126-.617.466-1.194.632-.577.167-3.186.76-3.186.76l-.607-1.548-.435-1.251s2.415-3.129 2.935-3.346q.078-.032.151-.054c.458-.141.857-.054 1.106-.101.092-.016 1.012-.12 1.211.072.276.266.36.563.313.822 0 0 .518.545.556 1.051 0 0 .495.488.362 1.129 0 .002.447.553.267.933"/>
  <path style="fill:#d4d8e8" d="M264.589 239.017c.603-.388 1.382-.913 4.081-2.263 5.024-2.514 11.229-7.071 12.408-7.73 1.814-1.012 7.543-8.012 7.543-8.012-.296-1.054-3.012-3.17-3.012-3.17s-8.687 8.228-10.585 9.24c-1.712.913-10.581 1.852-12.483 2.036-2.319 3.163.752 10.733 2.048 9.899"/>
</svg>
