<?xml version="1.0" encoding="utf-8"?>
<!-- Generator: Adobe Illustrator 27.5.0, SVG Export Plug-In . SVG Version: 6.00 Build 0)  -->
<svg version="1.1" id="_x2018_лой_x5F_1" xmlns="http://www.w3.org/2000/svg" xmlns:xlink="http://www.w3.org/1999/xlink"
	 x="0px" y="0px" viewBox="0 0 3200 2000" style="enable-background:new 0 0 3200 2000;" xml:space="preserve">
<g>
	<path style="fill:#EBF3FA;" d="M2990.411,1568.475c-0.396,1.218-0.812,2.436-1.218,3.665c-3.545,10.392-7.439,20.937-11.709,31.646
		c-0.592,1.492-1.195,2.985-1.811,4.478c-5.189,12.75-10.918,25.731-17.217,38.943c0,0.011,0,0.011-0.011,0.022
		c-0.065,0.153-0.143,0.317-0.22,0.472l-2671.849,3.632c0.626-10.688-244.032-356.112,11.972-692.298
		C554.343,622.86,853.68,804.017,915.097,567.468c13.267-51.113,34.62-94.205,62.031-130.043c1.449-1.92,2.93-3.819,4.444-5.685
		c3.84-4.817,7.802-9.491,11.862-14.034c1.13-1.262,2.261-2.513,3.402-3.753c10.348-11.204,21.354-21.573,32.93-31.131
		c2.327-1.92,4.675-3.819,7.056-5.673h0.011c142.224-111.279,365.769-106.528,525.462-40.348
		c212.079,87.884,600.244-64.874,931.919,46.746c5.498,1.843,10.984,3.764,16.438,5.772h0.012
		c11.488,4.191,22.89,8.713,34.214,13.596c24.657,10.622,46.208,22.692,65.038,35.97c2.678,1.887,5.3,3.808,7.868,5.739h0.021
		c229.768,173.354,25.502,536.841,144.177,593.046c74.464,35.268,184.394,114.461,231.94,243.034
		c0.604,1.635,1.195,3.27,1.777,4.916c0.647,1.832,1.284,3.665,1.898,5.508c0.56,1.657,1.108,3.325,1.635,4.993
		C3023.21,1370.804,3026.107,1461.267,2990.411,1568.475z"/>
	<g style="opacity:0.4;">
		<g>
			
				<rect x="1451.185" y="537.208" transform="matrix(-1 -1.224647e-16 1.224647e-16 -1 3109.0029 1244.8003)" style="fill:#C3DAFC;" width="206.634" height="170.383"/>
			
				<rect x="1554.502" y="537.208" transform="matrix(-1 -1.224647e-16 1.224647e-16 -1 3315.6377 1244.8003)" style="fill:#D4E4F8;" width="206.634" height="170.383"/>
			<polygon style="fill:#9DC3F3;" points="1451.305,664.382 1484.048,664.382 1481.164,655.168 1484.048,648.584 1451.305,648.584 
							"/>
			<polygon style="fill:#E3F0FF;" points="1554.502,589.937 1587.245,589.937 1584.36,580.724 1587.245,574.14 1554.502,574.14 			
				"/>
			<polygon style="fill:#9DC3F3;" points="1554.502,574.14 1521.759,574.14 1524.643,583.354 1521.759,589.937 1554.502,589.937 			
				"/>
			<polygon style="fill:#E3F0FF;" points="1761.141,666.211 1728.397,666.211 1731.281,675.424 1728.397,682.008 1761.141,682.008 
							"/>
			<rect x="1688.145" y="548.761" style="fill:#FFFFFF;" width="59.462" height="23.133"/>
		</g>
		<g>
			
				<rect x="1086.27" y="537.208" transform="matrix(-1 -1.224647e-16 1.224647e-16 -1 2379.1738 1244.8003)" style="fill:#C3DAFC;" width="206.634" height="170.383"/>
			
				<rect x="1189.587" y="537.208" transform="matrix(-1 -1.224647e-16 1.224647e-16 -1 2585.8076 1244.8003)" style="fill:#D4E4F8;" width="206.634" height="170.383"/>
			<polygon style="fill:#9DC3F3;" points="1086.391,664.382 1119.133,664.382 1116.249,655.168 1119.133,648.584 1086.391,648.584 
							"/>
			<polygon style="fill:#E3F0FF;" points="1189.587,589.937 1222.33,589.937 1219.446,580.724 1222.33,574.14 1189.587,574.14 			
				"/>
			<polygon style="fill:#9DC3F3;" points="1189.587,574.14 1156.844,574.14 1159.728,583.354 1156.844,589.937 1189.587,589.937 			
				"/>
			<polygon style="fill:#E3F0FF;" points="1396.225,666.211 1363.482,666.211 1366.366,675.424 1363.482,682.008 1396.225,682.008 
							"/>
			<rect x="1323.229" y="548.761" style="fill:#FFFFFF;" width="59.462" height="23.133"/>
		</g>
		<g>
			<rect x="952.61" y="707.592" style="fill:#C3DAFC;" width="79.475" height="947.958"/>
			<rect x="1823.965" y="707.592" style="fill:#C3DAFC;" width="66.064" height="947.958"/>
			<rect x="1032.085" y="707.592" style="fill:#C3DAFC;" width="857.944" height="24.671"/>
			<rect x="1032.085" y="1156.899" style="fill:#C3DAFC;" width="857.944" height="24.671"/>
			<rect x="1032.085" y="1533.738" style="fill:#C3DAFC;" width="857.944" height="24.672"/>
			<g>
				
					<rect x="1465.494" y="980.745" transform="matrix(-1 -1.224647e-16 1.224647e-16 -1 3144.6211 2137.644)" style="fill:#A9C8ED;" width="213.633" height="176.155"/>
				
					<rect x="1572.311" y="980.745" transform="matrix(-1 -1.224647e-16 1.224647e-16 -1 3358.2539 2137.644)" style="fill:#D4E4F8;" width="213.633" height="176.155"/>
				<polygon style="fill:#9DC3F3;" points="1465.618,1112.226 1499.471,1112.226 1496.488,1102.7 1499.471,1095.894 
					1465.618,1095.894 				"/>
				<polygon style="fill:#E3F0FF;" points="1572.311,1035.26 1606.162,1035.26 1603.181,1025.733 1606.162,1018.927 
					1572.311,1018.927 				"/>
				<polygon style="fill:#9DC3F3;" points="1572.311,1018.927 1538.458,1018.927 1541.44,1028.453 1538.458,1035.26 
					1572.311,1035.26 				"/>
				<polygon style="fill:#E3F0FF;" points="1785.948,1114.116 1752.097,1114.116 1755.078,1123.643 1752.097,1130.449 
					1785.948,1130.449 				"/>
				<rect x="1710.479" y="992.688" style="fill:#FFFFFF;" width="61.477" height="23.917"/>
			</g>
			<g>
				
					<rect x="1191.333" y="980.745" transform="matrix(-1 -1.224647e-16 1.224647e-16 -1 2596.3003 2137.644)" style="fill:#C3DAFC;" width="213.633" height="176.155"/>
				
					<rect x="1298.15" y="980.745" transform="matrix(-1 -1.224647e-16 1.224647e-16 -1 2809.9336 2137.644)" style="fill:#D4E4F8;" width="213.633" height="176.155"/>
				<polygon style="fill:#9DC3F3;" points="1191.458,1112.226 1225.311,1112.226 1222.328,1102.7 1225.311,1095.894 
					1191.458,1095.894 				"/>
				<polygon style="fill:#E3F0FF;" points="1298.15,1035.26 1332.002,1035.26 1329.021,1025.733 1332.002,1018.927 
					1298.15,1018.927 				"/>
				<polygon style="fill:#9DC3F3;" points="1298.15,1018.927 1264.298,1018.927 1267.28,1028.453 1264.298,1035.26 1298.15,1035.26 
									"/>
				<polygon style="fill:#E3F0FF;" points="1511.788,1114.116 1477.936,1114.116 1480.918,1123.643 1477.936,1130.449 
					1511.788,1130.449 				"/>
				<polygon style="fill:#E3F0FF;" points="1511.788,1016.606 1477.936,1016.606 1480.918,1026.131 1477.936,1032.938 
					1511.788,1032.938 				"/>
				<rect x="1319.728" y="1099.052" style="fill:#FFFFFF;" width="100.199" height="38.981"/>
			</g>
			<g>
				
					<rect x="1465.494" y="1380.92" transform="matrix(-1 -1.224647e-16 1.224647e-16 -1 3115.6338 2914.0918)" style="fill:#C3DAFC;" width="184.645" height="152.252"/>
				
					<rect x="1557.816" y="1380.92" transform="matrix(-1 -1.224647e-16 1.224647e-16 -1 3300.2783 2914.0918)" style="fill:#D4E4F8;" width="184.645" height="152.252"/>
				<polygon style="fill:#9DC3F3;" points="1465.602,1494.56 1494.86,1494.56 1492.283,1486.326 1494.86,1480.443 
					1465.602,1480.443 				"/>
				<polygon style="fill:#E3F0FF;" points="1557.816,1428.037 1587.075,1428.037 1584.498,1419.804 1587.075,1413.921 
					1557.816,1413.921 				"/>
				<polygon style="fill:#9DC3F3;" points="1557.816,1413.921 1528.558,1413.921 1531.135,1422.154 1528.558,1428.037 
					1557.816,1428.037 				"/>
				<polygon style="fill:#E3F0FF;" points="1742.467,1496.194 1713.208,1496.194 1715.785,1504.428 1713.208,1510.311 
					1742.467,1510.311 				"/>
				<rect x="1677.238" y="1391.242" style="fill:#FFFFFF;" width="53.135" height="20.672"/>
			</g>
			<g>
				
					<rect x="1114.81" y="1357.018" transform="matrix(-1 -1.224647e-16 1.224647e-16 -1 2443.2534 2890.1895)" style="fill:#C3DAFC;" width="213.633" height="176.154"/>
				
					<rect x="1221.626" y="1357.018" transform="matrix(-1 -1.224647e-16 1.224647e-16 -1 2656.8862 2890.1895)" style="fill:#D4E4F8;" width="213.633" height="176.154"/>
				<polygon style="fill:#2A4E96;" points="1114.935,1488.498 1148.787,1488.498 1145.805,1478.973 1148.787,1472.166 
					1114.935,1472.166 				"/>
				<polygon style="fill:#618DC1;" points="1221.626,1411.532 1255.479,1411.532 1252.497,1402.006 1255.479,1395.199 
					1221.626,1395.199 				"/>
				<polygon style="fill:#2A4E96;" points="1221.626,1395.199 1187.774,1395.199 1190.756,1404.726 1187.774,1411.532 
					1221.626,1411.532 				"/>
				<polygon style="fill:#618DC1;" points="1435.265,1490.389 1401.413,1490.389 1404.395,1499.915 1401.413,1506.722 
					1435.265,1506.722 				"/>
				<rect x="1359.796" y="1368.961" style="fill:#FFFFFF;" width="61.477" height="23.917"/>
			</g>
			<g>
				
					<rect x="1174.941" y="845.269" transform="matrix(-1 -1.224647e-16 1.224647e-16 -1 2513.2031 1825.207)" style="fill:#C3DAFC;" width="163.321" height="134.669"/>
				
					<rect x="1256.602" y="845.269" transform="matrix(-1 -1.224647e-16 1.224647e-16 -1 2676.5244 1825.207)" style="fill:#D4E4F8;" width="163.321" height="134.669"/>
				<polygon style="fill:#9DC3F3;" points="1175.036,945.785 1200.916,945.785 1198.636,938.503 1200.916,933.299 1175.036,933.299 
									"/>
				<polygon style="fill:#E3F0FF;" points="1256.602,886.945 1282.481,886.945 1280.202,879.663 1282.481,874.459 1256.602,874.459 
									"/>
				<polygon style="fill:#9DC3F3;" points="1256.602,874.459 1230.722,874.459 1233.001,881.741 1230.722,886.945 1256.602,886.945 
									"/>
				<polygon style="fill:#E3F0FF;" points="1419.927,947.231 1394.047,947.231 1396.326,954.513 1394.047,959.717 1419.927,959.717 
									"/>
				<rect x="1362.231" y="854.4" style="fill:#FFFFFF;" width="46.998" height="18.284"/>
			</g>
			<g>
				
					<rect x="1466.744" y="845.269" transform="matrix(-1 -1.224647e-16 1.224647e-16 -1 3096.8081 1825.207)" style="fill:#C3DAFC;" width="163.321" height="134.669"/>
				
					<rect x="1548.404" y="845.269" transform="matrix(-1 -1.224647e-16 1.224647e-16 -1 3260.1299 1825.207)" style="fill:#D4E4F8;" width="163.321" height="134.669"/>
				<polygon style="fill:#9DC3F3;" points="1466.839,945.785 1492.719,945.785 1490.439,938.503 1492.719,933.299 1466.839,933.299 
									"/>
				<polygon style="fill:#E3F0FF;" points="1548.404,886.945 1574.284,886.945 1572.004,879.663 1574.284,874.459 1548.404,874.459 
									"/>
				<polygon style="fill:#9DC3F3;" points="1548.404,874.459 1522.524,874.459 1524.804,881.741 1522.524,886.945 1548.404,886.945 
									"/>
				<polygon style="fill:#E3F0FF;" points="1711.729,947.231 1685.85,947.231 1688.129,954.513 1685.85,959.717 1711.729,959.717 
									"/>
				<rect x="1654.034" y="854.4" style="fill:#FFFFFF;" width="46.998" height="18.284"/>
			</g>
		</g>
	</g>
	<g>
		<g>
			<path style="fill:#2B478B;" d="M2774.757,1392.281l-4.063-1.195c10.737-36.49-8.747-74.479-43.435-84.686l-87.372-25.711
				c-17.983-5.291-28.085-24.987-22.518-43.905c17.991-61.144-14.658-124.801-72.781-141.904l1.258-4.275
				c60.364,17.763,94.271,83.875,75.587,147.376c-4.874,16.561,3.97,33.803,19.712,38.435l87.372,25.71
				C2765.443,1312.991,2786.188,1353.435,2774.757,1392.281z"/>
		</g>
		<g>
			<path style="fill:#2B478B;" d="M2765.933,1422.269l-4.063-1.196c10.737-36.489-8.746-74.48-43.434-84.688l-87.372-25.71
				c-17.983-5.292-28.085-24.987-22.519-43.903c17.992-61.144-14.657-124.804-72.78-141.906l1.258-4.275
				c60.364,17.763,94.271,83.876,75.586,147.377c-4.873,16.561,3.971,33.801,19.713,38.434l87.372,25.71
				C2756.62,1342.977,2777.364,1383.422,2765.933,1422.269z"/>
		</g>
		<g>
			<rect x="2128.062" y="979.268" style="fill:#ED823A;" width="183.964" height="151.69"/>
			<rect x="2036.08" y="979.268" style="fill:#FF9E55;" width="183.963" height="151.69"/>
			<polygon style="fill:#DD732C;" points="2311.918,1092.488 2282.768,1092.488 2285.335,1084.286 2282.768,1078.425 
				2311.918,1078.425 			"/>
			<polygon style="fill:#FFB27D;" points="2220.043,1026.212 2190.893,1026.212 2193.461,1018.009 2190.893,1012.148 
				2220.043,1012.148 			"/>
			<polygon style="fill:#DD732C;" points="2220.043,1012.148 2249.193,1012.148 2246.627,1020.351 2249.193,1026.212 
				2220.043,1026.212 			"/>
			<polygon style="fill:#FFB27D;" points="2036.076,1094.117 2065.227,1094.117 2062.658,1102.32 2065.227,1108.182 
				2036.076,1108.182 			"/>
			
				<rect x="2048.125" y="989.553" transform="matrix(-1 -1.224647e-16 1.224647e-16 -1 4149.1885 1999.7017)" style="fill:#FFFFFF;" width="52.938" height="20.595"/>
		</g>
		<g>
			<path style="fill:#2B478B;" d="M2318.63,566.781c-26.377,0-54.039-4.186-69.386-13.042c-24.421-14.092-55.397-8.117-55.709-8.055
				l-0.752-3.744c1.324-0.266,32.677-6.335,58.371,8.491c25.318,14.611,88.232,15.907,116.713,6.211
				c28.056-9.551,65.311-19.831,80.805-19.831v3.818c-15.061,0-51.805,10.174-79.574,19.627
				C2356.508,564.543,2337.911,566.78,2318.63,566.781z"/>
		</g>
		<rect x="2154.939" y="839.453" style="fill:#2B478B;" width="12.066" height="78.702"/>
		<rect x="2178.826" y="839.453" style="fill:#2B478B;" width="12.066" height="78.702"/>
		<g>
			<path style="fill:#2B478B;" d="M2318.63,558.306c-26.377,0-54.039-4.186-69.386-13.042c-24.421-14.093-55.397-8.117-55.709-8.056
				l-0.752-3.744c1.324-0.266,32.677-6.335,58.371,8.491c25.318,14.61,88.232,15.907,116.713,6.211
				c28.056-9.551,65.311-19.831,80.805-19.831v3.819c-15.061,0-51.805,10.174-79.574,19.627
				C2356.508,556.067,2337.911,558.305,2318.63,558.306z"/>
		</g>
		<g>
			<path style="fill:#2B478B;" d="M2572.701,1018.338h-5.01v-3.818h5.01c23.201,0,42.076-18.875,42.076-42.075v-435.56
				c0-23.201-18.875-42.076-42.076-42.076h-37.144v-3.819h37.144c25.307,0,45.896,20.588,45.896,45.895v435.56
				C2618.597,997.75,2598.008,1018.338,2572.701,1018.338z"/>
		</g>
		<g>
			<path style="fill:#2B478B;" d="M2567.691,981.457v-3.819c16.137,0,29.265-13.128,29.265-29.264V543.501
				c0-15.649-12.731-28.38-28.38-28.38h-29.439v-3.819h29.439c17.755,0,32.199,14.444,32.199,32.199v404.873
				C2600.775,966.615,2585.934,981.457,2567.691,981.457z"/>
		</g>
		<path style="fill:#AEC3FF;" d="M2223.348,856.924h-104.229c-14.83,0-26.852-12.022-26.852-26.852V597.219
			c0-14.83,12.021-26.852,26.852-26.852h104.229c14.83,0,26.852,12.022,26.852,26.852v232.854
			C2250.199,844.902,2238.178,856.924,2223.348,856.924z"/>
		<g>
			<circle style="fill:#DDE7FE;" cx="2135.563" cy="611.142" r="13.744"/>
			<path style="fill:#DDE7FE;" d="M2121.818,807.098c0-7.59,6.153-13.744,13.744-13.744c7.59,0,13.744,6.154,13.744,13.744
				c0,7.591-6.154,13.745-13.744,13.745C2127.972,820.842,2121.818,814.688,2121.818,807.098z"/>
			<path style="fill:#DDE7FE;" d="M2193.16,611.142c0-7.59,6.154-13.744,13.745-13.744s13.744,6.154,13.744,13.744
				c0,7.591-6.153,13.744-13.744,13.744S2193.16,618.732,2193.16,611.142z"/>
			<path style="fill:#DDE7FE;" d="M2193.16,807.098c0-7.59,6.154-13.744,13.745-13.744s13.744,6.154,13.744,13.744
				c0,7.591-6.153,13.745-13.744,13.745S2193.16,814.688,2193.16,807.098z"/>
		</g>
		<path style="fill:#FF9E55;" d="M2229.891,931.668c0,2.83-0.63,5.578-1.803,8.194h-107.941c-1.173-2.616-1.803-5.364-1.803-8.194
			c0-17.882,24.978-32.386,55.773-32.386S2229.891,913.786,2229.891,931.668z"/>
		<g>
			<path style="fill:#2B478B;" d="M2323.373,968.591v146.688c0,11.768-5.785,22.785-15.468,29.461l-44.736,30.852
				c-3.206,2.212-7.598,1.405-9.809-1.801l-0.003-0.005c-2.211-3.206-1.405-7.598,1.801-9.809l44.736-30.853
				c5.861-4.049,9.367-10.714,9.367-17.846V968.591c0-15.866-12.862-28.729-28.729-28.729h-212.832
				c-15.866,0-28.729,12.863-28.729,28.729v145.852c0,7.523,3.81,14.395,10.192,18.378l49.982,31.25
				c3.301,2.063,4.305,6.411,2.243,9.714l0,0c-2.063,3.305-6.415,4.31-9.719,2.245l-49.985-31.236
				c-10.54-6.589-16.825-17.932-16.825-30.351V968.591c0-23.66,19.18-42.84,42.84-42.84h212.832
				C2304.193,925.75,2323.373,944.931,2323.373,968.591z"/>
		</g>
		<rect x="2166.964" y="482.164" style="fill:#2B478B;" width="293.27" height="8.825"/>
		<rect x="2166.964" y="506.889" style="fill:#2B478B;" width="293.27" height="8.825"/>
		<path style="fill:#FF9E55;" d="M2209.264,570.367h-87.445v-61.351c0-24.934,20.212-45.146,45.146-45.146l0,0
			c24.934,0,45.146,20.212,45.146,45.146v58.504C2212.109,569.092,2210.836,570.367,2209.264,570.367z"/>
		<path style="fill:#AEC3FF;" d="M2519.713,463.87h-44.574c-20.967,0-37.964,16.997-37.964,37.964v795.464
			c0,20.968,16.997,37.965,37.964,37.965h44.574c20.967,0,37.965-16.997,37.965-37.965V501.835
			C2557.678,480.867,2540.68,463.87,2519.713,463.87z"/>
		<circle style="fill:#2B478B;" cx="2497.426" cy="506.205" r="7.007"/>
		<path style="fill:#98B5F4;" d="M2549.143,1167.904h-107.807c-10.245,0-18.551-8.305-18.551-18.55V605.199
			c0-10.245,8.306-18.55,18.551-18.55h107.807c10.245,0,18.55,8.305,18.55,18.55v544.156
			C2567.692,1159.6,2559.388,1167.904,2549.143,1167.904z"/>
		<path style="fill:#98B5F4;" d="M2576.121,1379.31h-135.389c-9.912,0-17.947-8.035-17.947-17.946v-61.928
			c0-9.912,8.035-17.947,17.947-17.947h117.442c9.912,0,17.946,8.035,17.946,17.947V1379.31z"/>
		<g>
			
				<ellipse transform="matrix(0.0227 -0.9997 0.9997 0.0227 1610.995 2661.783)" style="fill:#FF9E55;" cx="2166.964" cy="506.889" rx="26.691" ry="26.69"/>
			<g>
				<path style="fill:#2B478B;" d="M2166.964,534.408c-15.174,0-27.519-12.345-27.519-27.519c0-15.174,12.345-27.519,27.519-27.519
					s27.519,12.345,27.519,27.519C2194.482,522.063,2182.138,534.408,2166.964,534.408z M2166.964,481.026
					c-14.261,0-25.862,11.602-25.862,25.863c0,14.261,11.602,25.863,25.862,25.863s25.862-11.602,25.862-25.863
					C2192.826,492.628,2181.225,481.026,2166.964,481.026z"/>
			</g>
			
				<ellipse transform="matrix(0.2298 -0.9732 0.9732 0.2298 1175.7694 2499.426)" style="fill:#ED823A;" cx="2166.964" cy="506.889" rx="16.29" ry="16.29"/>
		</g>
	</g>
	<g>
		<g>
			
				<rect x="2775.761" y="1260.73" transform="matrix(-0.9104 0.4137 -0.4137 -0.9104 5953.5347 1326.6688)" style="fill:#C3DAFC;" width="114.694" height="94.573"/>
			
				<rect x="2827.97" y="1237.003" transform="matrix(-0.9104 0.4137 -0.4137 -0.9104 6043.457 1259.7139)" style="fill:#D4E4F8;" width="114.694" height="94.573"/>
			<polygon style="fill:#618DC1;" points="2825.653,1291.611 2842.199,1284.092 2838.625,1280.099 2838.571,1276.109 
				2822.025,1283.629 			"/>
			<polygon style="fill:#2A4E96;" points="2822.025,1283.629 2805.479,1291.148 2809.053,1295.143 2809.107,1299.131 
				2825.653,1291.611 			"/>
			<polygon style="fill:#618DC1;" points="2947.589,1282.7 2931.043,1290.22 2934.617,1294.213 2934.671,1298.202 
				2951.217,1290.683 			"/>
			
				<rect x="2884.907" y="1232.71" transform="matrix(0.9104 -0.4137 0.4137 0.9104 -252.6979 1311.4281)" style="fill:#FFFFFF;" width="33.005" height="12.84"/>
		</g>
		<path style="fill:#2B478B;" d="M2990.411,1568.475c-0.396,1.218-0.812,2.436-1.218,3.665
			c-3.545,10.392-7.439,20.937-11.709,31.646c-0.592,1.492-1.195,2.985-1.811,4.478c-5.189,12.75-10.918,25.731-17.217,38.943
			h-140.401l-8.044-75.067l-0.395-3.665l-0.308-2.875l-19.981-186.292l-0.154-1.438l10.557-4.707l52.353-23.396l52.364-23.395
			l52.354-23.384l38.899-17.37c0.647,1.832,1.284,3.665,1.898,5.508c0.56,1.657,1.108,3.325,1.635,4.993
			C3023.21,1370.804,3026.107,1461.267,2990.411,1568.475z"/>
		<path style="fill:#D2E0FF;" d="M2990.411,1568.475c-0.396,1.218-0.812,2.436-1.218,3.665h-165.158l-0.361-3.665l-0.285-2.875
			l-18.04-182.561l8.329-3.731l185.556-83.188C3023.21,1370.804,3026.107,1461.267,2990.411,1568.475z"/>
		<path style="fill:#AEC3FF;" d="M2824.042,1572.138H1410.766c-53.247,0-96.412-43.165-96.412-96.413l0,0
			c0-53.247,43.165-96.412,96.412-96.412h1413.276c53.247,0,96.412,43.165,96.412,96.412l0,0
			C2920.454,1528.973,2877.289,1572.138,2824.042,1572.138z"/>
		<path style="fill:#C5D7FF;" d="M2920.451,1475.72c0,26.625-10.793,50.73-28.236,68.185
			c-17.443,17.444-41.549,28.236-68.174,28.236h-239.637c-5.137,0-9.301-4.163-9.301-9.3v-174.231c0-5.137,4.164-9.3,9.301-9.3
			h239.637C2877.291,1379.31,2920.451,1422.48,2920.451,1475.72z"/>
		<path style="fill:#C5D7FF;" d="M2990.411,1568.475c-0.396,1.218-0.812,2.436-1.218,3.665
			c-3.545,10.392-7.439,20.937-11.709,31.646c-0.592,1.492-1.195,2.985-1.811,4.478c-5.189,12.75-10.918,25.731-17.217,38.943
			c0,0.011,0,0.011-0.011,0.022l-152.966,0.065l-1404.37,0.647v-79.468H2990.411z"/>
		<g>
			<path style="fill:#98B5F4;" d="M1824.861,1465.315l-10.874-5.048c-0.899-0.428-1.492-1.316-1.515-2.314
				c-0.032-1.273-0.12-2.558-0.263-3.841c-0.253-2.393-0.681-4.719-1.295-6.957c-0.286-1.043,0.088-2.151,0.954-2.798l9.964-7.594
				c1.064-0.801,1.339-2.305,0.614-3.446l-6.134-9.678c-0.691-1.098-2.096-1.481-3.259-0.922l-10.348,5.081
				c-0.999,0.516-2.228,0.296-3.029-0.538c-3.379-3.522-7.318-6.485-11.653-8.79c-1.054-0.56-1.591-1.788-1.306-2.94l1.679-6.814
				c0.308-1.295-0.395-2.634-1.657-3.105l-10.688-3.862c-0.219-0.088-0.438-0.143-0.669-0.153c-1.064-0.11-2.118,0.472-2.567,1.481
				l-3.786,8.12l-0.911,1.985c-2.129-0.076-4.301,0-6.474,0.242c-2.931,0.318-5.772,0.899-8.472,1.723
				c-1.031,0.307-2.15-0.033-2.798-0.9l-6.102-8.032c-0.845-1.097-2.37-1.371-3.533-0.625l-7.396,4.675l-2.118,1.35
				c-1.163,0.734-1.591,2.228-0.977,3.445l4.235,8.658c0.505,0.998,0.318,2.205-0.472,2.973c-2.305,2.349-4.367,4.928-6.123,7.692
				c-0.176,0.23-0.308,0.461-0.45,0.692c-0.043,0.087-0.099,0.164-0.164,0.229c-0.626,0.846-1.701,1.219-2.732,0.955l-11.072-2.711
				c-0.12-0.032-0.252-0.044-0.373-0.065c-1.174-0.109-2.305,0.593-2.721,1.723l-3.874,10.655c-0.461,1.284,0.121,2.71,1.372,3.303
				l11.346,5.256c0.966,0.429,1.547,1.416,1.492,2.48c-0.099,2.326-0.032,4.696,0.23,7.1c0.143,1.284,0.33,2.534,0.57,3.774
				c0.188,0.999-0.208,2.03-1.02,2.645l-9.58,7.309c-1.053,0.79-1.327,2.282-0.614,3.412l6.079,9.569
				c0.735,1.151,2.217,1.591,3.468,0.976l8.186-4.016c1.108-0.537,2.414-0.264,3.193,0.67c3.051,3.676,6.649,6.857,10.666,9.437
				c0.966,0.593,1.427,1.745,1.152,2.853l-2.447,9.975c-0.318,1.339,0.417,2.711,1.701,3.193l10.622,3.863
				c1.272,0.461,2.699-0.144,3.248-1.361l0.219-0.472l4.39-9.437c0.472-1.01,1.492-1.603,2.611-1.525h0.011
				c2.667,0.175,5.389,0.132,8.143-0.165c1.471-0.153,2.896-0.395,4.334-0.681c0.988-0.208,1.998,0.165,2.612,0.966l6.199,8.153
				c0.846,1.119,2.415,1.404,3.589,0.658l9.524-6.046c0.274-0.176,0.494-0.396,0.681-0.626c0.592-0.778,0.724-1.854,0.285-2.765
				l-3.413-6.913c-0.405-0.845-0.329-1.854,0.176-2.623c0.143-0.197,0.308-0.384,0.494-0.549c4.707-3.939,8.569-8.756,11.379-14.21
				c0.472-0.933,1.46-1.459,2.479-1.404c0.154,0.011,0.297,0.033,0.45,0.077l8.954,2.194c1.306,0.318,2.634-0.384,3.105-1.646
				l0.088-0.252l3.785-10.381C1826.728,1467.335,1826.123,1465.908,1824.861,1465.315z M1789.627,1468.75
				c-1.098,3.072-3.862,6.825-6.693,9.283c-0.659,0.56-1.317,1.064-1.943,1.449c-2.94,1.843-5.947,3.061-8.921,3.73
				c-16.986,3.774-32.854-10.49-29.901-28.596c0.296-1.811,0.779-3.665,1.471-5.542c1.327-3.588,5.047-8.24,8.273-10.282
				c0.34-0.219,0.691-0.428,1.031-0.636C1774.144,1425.725,1798.021,1445.278,1789.627,1468.75z"/>
		</g>
		<g>
			<path style="fill:#D2E0FF;" d="M1898.459,1512.116l-7.824-3.632c-0.647-0.308-1.064-0.955-1.086-1.668
				c-0.022-0.922-0.088-1.833-0.187-2.766c-0.187-1.723-0.494-3.391-0.933-4.992c-0.197-0.758,0.065-1.559,0.68-2.02l7.166-5.465
				c0.779-0.57,0.965-1.656,0.449-2.479l-4.41-6.957c-0.505-0.79-1.504-1.064-2.349-0.67l-7.44,3.665
				c-0.724,0.362-1.602,0.209-2.172-0.395c-2.437-2.523-5.268-4.664-8.395-6.32c-0.746-0.396-1.142-1.284-0.933-2.107l1.207-4.905
				c0.219-0.933-0.286-1.897-1.186-2.238l-7.692-2.776c-0.164-0.065-0.318-0.099-0.482-0.109c-0.769-0.077-1.525,0.34-1.854,1.064
				l-2.71,5.849l-0.659,1.415c-1.536-0.043-3.095,0.012-4.663,0.176c-2.097,0.23-4.148,0.647-6.091,1.24
				c-0.734,0.22-1.547-0.021-2.008-0.647l-4.39-5.771c-0.614-0.79-1.711-0.987-2.545-0.461l-5.322,3.368l-1.515,0.977
				c-0.834,0.527-1.142,1.603-0.713,2.48l3.05,6.222c0.363,0.725,0.23,1.591-0.329,2.14c-1.667,1.69-3.149,3.545-4.411,5.53
				c-0.12,0.165-0.219,0.329-0.329,0.505c-0.021,0.055-0.065,0.11-0.109,0.165c-0.45,0.604-1.229,0.866-1.965,0.681l-7.966-1.942
				c-0.088-0.033-0.187-0.044-0.274-0.056c-0.834-0.076-1.657,0.429-1.953,1.24l-2.787,7.659c-0.329,0.933,0.088,1.953,0.987,2.382
				l8.164,3.774c0.691,0.318,1.108,1.031,1.075,1.788c-0.076,1.668-0.021,3.38,0.165,5.114c0.099,0.91,0.23,1.821,0.405,2.71
				c0.132,0.725-0.142,1.46-0.734,1.898l-6.881,5.256c-0.768,0.571-0.965,1.646-0.449,2.458l4.378,6.881
				c0.516,0.834,1.592,1.141,2.48,0.702l5.903-2.887c0.79-0.395,1.723-0.186,2.293,0.483c2.184,2.645,4.784,4.927,7.671,6.781
				c0.691,0.428,1.02,1.262,0.822,2.063l-1.755,7.165c-0.231,0.966,0.296,1.953,1.229,2.294l7.638,2.775
				c0.91,0.341,1.931-0.088,2.326-0.965l0.164-0.341l3.16-6.792c0.33-0.725,1.076-1.152,1.877-1.098h0.011
				c1.909,0.132,3.862,0.099,5.849-0.12c1.054-0.11,2.085-0.286,3.116-0.483c0.714-0.153,1.448,0.11,1.888,0.691l4.455,5.871
				c0.614,0.801,1.733,0.998,2.579,0.461l6.857-4.346c0.187-0.121,0.352-0.285,0.483-0.45c0.428-0.56,0.516-1.339,0.208-1.986
				l-2.458-4.971c-0.285-0.614-0.241-1.339,0.132-1.888c0.099-0.143,0.209-0.285,0.352-0.395c3.391-2.831,6.155-6.299,8.186-10.227
				c0.341-0.67,1.054-1.043,1.789-0.999c0.099,0,0.208,0.022,0.318,0.044l6.44,1.58c0.934,0.23,1.888-0.274,2.229-1.186l0.065-0.175
				l2.722-7.473C1899.798,1513.564,1899.369,1512.533,1898.459,1512.116z M1873.122,1514.585c-0.79,2.206-2.787,4.916-4.817,6.672
				c-0.472,0.406-0.944,0.769-1.404,1.043c-2.118,1.327-4.269,2.205-6.409,2.688c-12.224,2.71-23.625-7.55-21.507-20.575
				c0.208-1.295,0.56-2.634,1.053-3.983c0.955-2.578,3.633-5.926,5.948-7.396c0.252-0.154,0.505-0.308,0.746-0.461
				C1861.984,1483.641,1879.157,1497.697,1873.122,1514.585z"/>
		</g>
		<g>
			<path style="fill:#98B5F4;" d="M2241.937,1465.315l-10.874-5.048c-0.9-0.428-1.482-1.316-1.515-2.314
				c-0.033-1.273-0.11-2.558-0.253-3.841c-0.264-2.393-0.68-4.719-1.295-6.957c-0.285-1.043,0.077-2.151,0.943-2.798l9.964-7.594
				c1.076-0.801,1.351-2.305,0.614-3.446l-6.122-9.678c-0.702-1.098-2.097-1.481-3.259-0.922l-10.359,5.081
				c-0.998,0.516-2.217,0.296-3.018-0.538c-3.38-3.522-7.318-6.485-11.664-8.79c-1.043-0.56-1.592-1.788-1.307-2.94l1.69-6.814
				c0.296-1.295-0.396-2.634-1.657-3.105l-10.698-3.862c-0.22-0.088-0.429-0.143-0.659-0.153c-1.064-0.11-2.117,0.472-2.578,1.481
				l-3.775,8.12l-0.91,1.985c-2.129-0.076-4.302,0-6.475,0.242c-2.93,0.318-5.771,0.899-8.471,1.723
				c-1.031,0.307-2.151-0.033-2.799-0.9l-6.111-8.032c-0.834-1.097-2.37-1.371-3.523-0.625l-7.406,4.675l-2.106,1.35
				c-1.163,0.734-1.592,2.228-0.988,3.445l4.247,8.658c0.494,0.998,0.318,2.205-0.472,2.973c-2.315,2.349-4.379,4.928-6.123,7.692
				c-0.176,0.23-0.308,0.461-0.45,0.692c-0.044,0.087-0.109,0.164-0.164,0.229c-0.626,0.846-1.712,1.219-2.732,0.955l-11.072-2.711
				c-0.121-0.032-0.252-0.044-0.373-0.065c-1.175-0.109-2.305,0.593-2.722,1.723l-3.873,10.655c-0.472,1.284,0.12,2.71,1.371,3.303
				l11.347,5.256c0.965,0.429,1.547,1.416,1.492,2.48c-0.109,2.326-0.033,4.696,0.23,7.1c0.132,1.284,0.329,2.534,0.56,3.774
				c0.187,0.999-0.197,2.03-1.01,2.645l-9.579,7.309c-1.054,0.79-1.328,2.282-0.615,3.412l6.08,9.569
				c0.724,1.151,2.205,1.591,3.456,0.976l8.197-4.016c1.097-0.537,2.403-0.264,3.193,0.67c3.039,3.676,6.649,6.857,10.666,9.437
				c0.954,0.593,1.426,1.745,1.151,2.853l-2.446,9.975c-0.329,1.339,0.417,2.711,1.7,3.193l10.611,3.863
				c1.284,0.461,2.699-0.144,3.248-1.361l0.23-0.472l4.39-9.437c0.46-1.01,1.492-1.603,2.601-1.525h0.021
				c2.655,0.175,5.377,0.132,8.131-0.165c1.471-0.153,2.908-0.395,4.335-0.681c0.999-0.208,2.008,0.165,2.622,0.966l6.2,8.153
				c0.845,1.119,2.414,1.404,3.589,0.658l9.524-6.046c0.263-0.176,0.493-0.396,0.681-0.626c0.581-0.778,0.724-1.854,0.273-2.765
				l-3.401-6.913c-0.406-0.845-0.329-1.854,0.176-2.623c0.132-0.197,0.296-0.384,0.493-0.549c4.708-3.939,8.56-8.756,11.379-14.21
				c0.462-0.933,1.46-1.459,2.48-1.404c0.143,0.011,0.297,0.033,0.438,0.077l8.966,2.194c1.295,0.318,2.623-0.384,3.095-1.646
				l0.087-0.252l3.786-10.381C2243.802,1467.335,2243.198,1465.908,2241.937,1465.315z M2206.713,1468.75
				c-1.109,3.072-3.863,6.825-6.694,9.283c-0.658,0.56-1.316,1.064-1.942,1.449c-2.951,1.843-5.947,3.061-8.932,3.73
				c-16.986,3.774-32.843-10.49-29.902-28.596c0.308-1.811,0.79-3.665,1.481-5.542c1.328-3.588,5.036-8.24,8.263-10.282
				c0.352-0.219,0.691-0.428,1.043-0.636C2191.229,1425.725,2215.096,1445.278,2206.713,1468.75z"/>
		</g>
		<g>
			<path style="fill:#D2E0FF;" d="M2315.545,1512.116l-7.824-3.632c-0.647-0.308-1.075-0.955-1.086-1.668
				c-0.033-0.922-0.088-1.833-0.188-2.766c-0.186-1.723-0.493-3.391-0.932-4.992c-0.209-0.758,0.054-1.559,0.68-2.02l7.166-5.465
				c0.768-0.57,0.965-1.656,0.438-2.479l-4.4-6.957c-0.505-0.79-1.515-1.064-2.349-0.67l-7.45,3.665
				c-0.714,0.362-1.592,0.209-2.173-0.395c-2.426-2.523-5.268-4.664-8.383-6.32c-0.758-0.396-1.142-1.284-0.944-2.107l1.218-4.905
				c0.22-0.933-0.285-1.897-1.196-2.238l-7.692-2.776c-0.152-0.065-0.307-0.099-0.472-0.109c-0.768-0.077-1.524,0.34-1.854,1.064
				l-2.721,5.849l-0.658,1.415c-1.525-0.043-3.095,0.012-4.653,0.176c-2.106,0.23-4.147,0.647-6.09,1.24
				c-0.746,0.22-1.547-0.021-2.009-0.647l-4.399-5.771c-0.604-0.79-1.701-0.987-2.535-0.461l-5.321,3.368l-1.525,0.977
				c-0.834,0.527-1.142,1.603-0.703,2.48l3.051,6.222c0.362,0.725,0.23,1.591-0.34,2.14c-1.657,1.69-3.139,3.545-4.4,5.53
				c-0.132,0.165-0.22,0.329-0.329,0.505c-0.033,0.055-0.077,0.11-0.11,0.165c-0.46,0.604-1.229,0.866-1.975,0.681l-7.955-1.942
				c-0.089-0.033-0.188-0.044-0.275-0.056c-0.844-0.076-1.656,0.429-1.953,1.24l-2.787,7.659c-0.34,0.933,0.088,1.953,0.988,2.382
				l8.152,3.774c0.703,0.318,1.119,1.031,1.076,1.788c-0.077,1.668-0.022,3.38,0.164,5.114c0.099,0.91,0.242,1.821,0.417,2.71
				c0.132,0.725-0.153,1.46-0.735,1.898l-6.891,5.256c-0.757,0.571-0.955,1.646-0.439,2.458l4.367,6.881
				c0.527,0.834,1.592,1.141,2.491,0.702l5.893-2.887c0.79-0.395,1.734-0.186,2.294,0.483c2.194,2.645,4.783,4.927,7.681,6.781
				c0.681,0.428,1.021,1.262,0.823,2.063l-1.756,7.165c-0.241,0.966,0.297,1.953,1.218,2.294l7.638,2.775
				c0.922,0.341,1.942-0.088,2.337-0.965l0.165-0.341l3.149-6.792c0.34-0.725,1.075-1.152,1.876-1.098h0.011
				c1.921,0.132,3.874,0.099,5.86-0.12c1.053-0.11,2.085-0.286,3.116-0.483c0.713-0.153,1.438,0.11,1.876,0.691l4.467,5.871
				c0.604,0.801,1.733,0.998,2.578,0.461l6.848-4.346c0.197-0.121,0.362-0.285,0.493-0.45c0.417-0.56,0.517-1.339,0.198-1.986
				l-2.447-4.971c-0.297-0.614-0.241-1.339,0.121-1.888c0.099-0.143,0.219-0.285,0.361-0.395c3.38-2.831,6.156-6.299,8.187-10.227
				c0.329-0.67,1.042-1.043,1.777-0.999c0.11,0,0.208,0.022,0.318,0.044l6.452,1.58c0.933,0.23,1.888-0.274,2.228-1.186l0.066-0.175
				l2.71-7.473C2316.883,1513.564,2316.444,1512.533,2315.545,1512.116z M2290.196,1514.585c-0.79,2.206-2.776,4.916-4.807,6.672
				c-0.482,0.406-0.954,0.769-1.404,1.043c-2.118,1.327-4.279,2.205-6.419,2.688c-12.213,2.71-23.625-7.55-21.508-20.575
				c0.22-1.295,0.57-2.634,1.064-3.983c0.955-2.578,3.621-5.926,5.947-7.396c0.242-0.154,0.494-0.308,0.746-0.461
				C2279.069,1483.641,2296.231,1497.697,2290.196,1514.585z"/>
		</g>
		<g>
			<path style="fill:#98B5F4;" d="M2007.993,1455.319l-11.808-2.085c-0.977-0.187-1.777-0.9-2.052-1.854
				c-0.361-1.229-0.779-2.447-1.24-3.654c-0.866-2.238-1.864-4.378-3.028-6.386c-0.549-0.944-0.472-2.097,0.197-2.952l7.692-9.887
				c0.823-1.054,0.702-2.568-0.296-3.49l-8.405-7.79c-0.955-0.878-2.403-0.89-3.38-0.056l-8.713,7.571
				c-0.823,0.747-2.063,0.846-3.051,0.242c-4.17-2.524-8.734-4.39-13.529-5.498c-1.152-0.274-1.986-1.328-2.009-2.513l-0.12-7.012
				c-0.033-1.339-1.054-2.458-2.393-2.59l-11.335-0.999c-0.23-0.021-0.45-0.021-0.681,0.022c-1.054,0.176-1.92,1.01-2.106,2.106
				l-1.569,8.813l-0.373,2.15c-2.074,0.472-4.159,1.108-6.2,1.887c-2.743,1.064-5.344,2.359-7.747,3.841
				c-0.921,0.56-2.085,0.516-2.93-0.153l-7.967-6.2c-1.086-0.845-2.645-0.724-3.566,0.297l-5.958,6.419l-1.7,1.844
				c-0.934,1.01-0.966,2.557-0.066,3.588l6.32,7.286c0.746,0.834,0.867,2.041,0.308,2.984c-1.635,2.864-2.963,5.882-3.95,9.01
				c-0.11,0.263-0.176,0.516-0.264,0.778c-0.011,0.1-0.055,0.176-0.088,0.264c-0.395,0.977-1.35,1.613-2.403,1.624l-11.401,0.22
				c-0.12-0.011-0.252,0.011-0.372,0.033c-1.163,0.197-2.074,1.163-2.195,2.358l-1.01,11.292c-0.12,1.36,0.813,2.59,2.173,2.831
				l12.313,2.184c1.042,0.165,1.854,0.977,2.074,2.008c0.493,2.282,1.174,4.554,2.04,6.814c0.461,1.196,0.966,2.359,1.515,3.501
				c0.438,0.921,0.329,2.019-0.296,2.819l-7.396,9.515c-0.812,1.042-0.691,2.545,0.286,3.456l8.328,7.692
				c0.998,0.933,2.534,0.966,3.588,0.065l6.892-5.991c0.933-0.801,2.261-0.867,3.259-0.176c3.885,2.787,8.187,4.928,12.729,6.397
				c1.076,0.329,1.833,1.328,1.844,2.469l0.197,10.271c0.022,1.372,1.087,2.502,2.458,2.634l11.248,1.02
				c1.35,0.121,2.567-0.822,2.798-2.14l0.099-0.516l1.821-10.237c0.188-1.098,1.032-1.942,2.129-2.151l0.012-0.011
				c2.622-0.505,5.234-1.24,7.823-2.238c1.383-0.527,2.711-1.119,4.017-1.767c0.899-0.461,1.975-0.352,2.776,0.263l8.087,6.299
				c1.098,0.867,2.688,0.735,3.632-0.285l7.659-8.285c0.22-0.241,0.373-0.516,0.494-0.778c0.373-0.9,0.22-1.986-0.438-2.755
				l-5.059-5.805c-0.615-0.713-0.802-1.712-0.505-2.578c0.088-0.23,0.197-0.45,0.34-0.659c3.533-5.004,6.035-10.654,7.363-16.646
				c0.208-1.021,1.031-1.789,2.029-1.986c0.143-0.033,0.297-0.044,0.45-0.055l9.229-0.165c1.339-0.022,2.437-1.054,2.568-2.393
				l0.021-0.263l0.999-11.006C2010.309,1456.801,2009.365,1455.571,2007.993,1455.319z M1974.821,1467.675
				c-0.285,3.237-1.997,7.583-4.093,10.677c-0.505,0.714-1.01,1.361-1.515,1.898c-2.37,2.535-4.96,4.488-7.67,5.893
				c-15.45,8-34.434-1.733-36.233-19.982c-0.165-1.832-0.176-3.752,0.011-5.738c0.362-3.797,2.765-9.251,5.366-12.049
				c0.274-0.308,0.548-0.593,0.834-0.889C1948.837,1430.037,1976.917,1442.832,1974.821,1467.675z"/>
		</g>
		<path style="fill:#D2E0FF;" d="M2990.411,1568.475c-0.396,1.218-0.812,2.436-1.218,3.665
			c-3.545,10.392-7.439,20.937-11.709,31.646c-0.592,1.492-1.195,2.985-1.811,4.478c-5.189,12.75-10.918,25.731-17.217,38.943
			c0,0.011,0,0.011-0.011,0.022l-152.966,0.065v-78.82H2990.411z"/>
		<g>
			<path style="fill:#2B478B;" d="M2824.041,1576.467H1410.77c-55.552,0-100.747-45.195-100.747-100.747
				c0-26.902,10.482-52.2,29.515-71.232c19.025-19.025,44.323-29.504,71.232-29.504h1413.271
				c55.546,0,100.735,45.19,100.735,100.736c0,26.904-10.477,52.206-29.502,71.242
				C2876.249,1565.988,2850.951,1576.467,2824.041,1576.467z M1410.77,1383.635c-24.599,0-47.724,9.578-65.115,26.97
				c-17.398,17.398-26.98,40.523-26.98,65.115c0,50.781,41.314,92.095,92.096,92.095h1413.271c24.6,0,47.725-9.577,65.115-26.969
				c17.391-17.402,26.969-40.531,26.969-65.126c0-50.775-41.309-92.085-92.084-92.085H1410.77z"/>
		</g>
	</g>
	<g>
		<path style="fill:#C0D8FB;" d="M629.554,980.435h-93.609c-4.297,0-7.813-3.516-7.813-7.813v-90.349
			c0-4.297,3.516-7.814,7.813-7.814h93.609c4.297,0,7.813,3.516,7.813,7.814v90.349
			C637.367,976.919,633.851,980.435,629.554,980.435z"/>
		<path style="fill:#DFEBFD;" d="M625.498,975.844H540c-3.925,0-7.136-3.211-7.136-7.137v-82.52c0-3.925,3.211-7.137,7.136-7.137
			h85.498c3.925,0,7.136,3.211,7.136,7.137v82.52C632.634,972.632,629.423,975.844,625.498,975.844z"/>
		<g>
			<g>
				<circle style="fill:#B7D3F3;" cx="582.749" cy="888.722" r="2.263"/>
				<path style="fill:#B7D3F3;" d="M598.745,891.92c0.607-1.092,1.985-1.486,3.077-0.879c1.092,0.607,1.486,1.985,0.879,3.077
					c-0.607,1.092-1.985,1.486-3.077,0.879C598.531,894.391,598.138,893.013,598.745,891.92z"/>
				<path style="fill:#B7D3F3;" d="M614.387,904.348c1.05-0.678,2.451-0.375,3.128,0.674c0.678,1.05,0.375,2.451-0.674,3.128
					c-1.05,0.677-2.451,0.376-3.128-0.675C613.035,906.426,613.337,905.025,614.387,904.348z"/>
				<path style="fill:#B7D3F3;" d="M622.135,923.583c1.25,0,2.263,1.013,2.263,2.263s-1.013,2.263-2.263,2.263
					c-1.25,0-2.263-1.013-2.263-2.263S620.886,923.583,622.135,923.583z"/>
				<path style="fill:#B7D3F3;" d="M618.179,945.906c0.884,0.883,0.884,2.316,0,3.2c-0.884,0.884-2.316,0.884-3.2,0
					c-0.883-0.883-0.883-2.316,0-3.2C615.863,945.022,617.295,945.022,618.179,945.906z"/>
				<path style="fill:#B7D3F3;" d="M603.97,960.152c0.884,0.884,0.884,2.316,0,3.2c-0.884,0.884-2.316,0.884-3.2,0
					c-0.883-0.883-0.883-2.316,0-3.2C601.654,959.268,603.086,959.268,603.97,960.152z"/>
				<path style="fill:#B7D3F3;" d="M580.486,967.495c0-1.25,1.013-2.263,2.263-2.263c1.25,0,2.263,1.013,2.263,2.263
					c0,1.25-1.013,2.263-2.263,2.263C581.5,969.758,580.486,968.745,580.486,967.495z"/>
			</g>
			<g>
				<path style="fill:#B7D3F3;" d="M566.681,891.92c-0.607-1.092-1.984-1.486-3.077-0.879c-1.093,0.607-1.486,1.985-0.879,3.077
					c0.607,1.092,1.984,1.486,3.077,0.879C566.895,894.391,567.289,893.013,566.681,891.92z"/>
				<path style="fill:#B7D3F3;" d="M551.039,904.348c-1.05-0.678-2.45-0.375-3.128,0.674c-0.677,1.05-0.375,2.451,0.675,3.128
					c1.05,0.677,2.451,0.376,3.128-0.675C552.391,906.426,552.089,905.025,551.039,904.348z"/>
				<circle style="fill:#B7D3F3;" cx="543.29" cy="925.846" r="2.263"/>
				<path style="fill:#B7D3F3;" d="M547.247,945.906c-0.883,0.883-0.883,2.316,0,3.2c0.884,0.884,2.316,0.884,3.2,0
					c0.884-0.883,0.884-2.316,0-3.2C549.563,945.022,548.13,945.022,547.247,945.906z"/>
				<path style="fill:#B7D3F3;" d="M561.456,960.152c-0.884,0.884-0.884,2.316,0,3.2c0.883,0.884,2.316,0.884,3.2,0
					c0.884-0.883,0.884-2.316,0-3.2C563.772,959.268,562.339,959.268,561.456,960.152z"/>
			</g>
		</g>
		<g>
			<circle style="fill:#B7D3F3;" cx="584.402" cy="925.846" r="2.263"/>
			<g>
				<rect x="584.093" y="897.578" style="fill:#B7D3F3;" width="0.618" height="28.268"/>
			</g>
			<g>
				
					<rect x="582.084" y="918.997" transform="matrix(0.7866 -0.6175 0.6175 0.7866 -441.7867 561.6596)" style="fill:#B7D3F3;" width="19.052" height="1.854"/>
			</g>
		</g>
	</g>
	<g>
		<g>
			
				<rect x="1541.28" y="1108.156" transform="matrix(-1 -1.224647e-16 1.224647e-16 -1 3222.3096 2331.5439)" style="fill:#D8702A;" width="139.749" height="115.231"/>
			
				<rect x="1611.155" y="1108.156" transform="matrix(-1 -1.224647e-16 1.224647e-16 -1 3362.0596 2331.5439)" style="fill:#FF9E55;" width="139.749" height="115.231"/>
			<polygon style="fill:#C15E1B;" points="1541.362,1194.165 1563.506,1194.165 1561.556,1187.934 1563.506,1183.48 
				1541.362,1183.48 			"/>
			<polygon style="fill:#FFB27D;" points="1611.155,1143.816 1633.3,1143.816 1631.349,1137.586 1633.3,1133.133 1611.155,1133.133 
							"/>
			<polygon style="fill:#C15E1B;" points="1611.155,1133.133 1589.011,1133.133 1590.961,1139.364 1589.011,1143.816 
				1611.155,1143.816 			"/>
			<polygon style="fill:#FFB27D;" points="1750.907,1195.401 1728.763,1195.401 1730.713,1201.633 1728.763,1206.086 
				1750.907,1206.086 			"/>
			<rect x="1701.539" y="1115.969" style="fill:#FFFFFF;" width="40.215" height="15.646"/>
		</g>
		<path style="fill:#FFC299;" d="M1684.979,1218.483c3.394-2.204,11.079-7.044,11.425-5.886c0.248,0.833-0.205,2.215-1.16,3.633
			c4.596-1.517,9.238-2.449,20.033,0.062c2.162,0.502,4.089,1.816,5.215,3.729c1.041,1.771,1.372,3.944-1.47,5.563
			c-5.684,3.237-3.994,1.231-11.902,5.958c-7.908,4.728-17.401,5.645-22.908,1.899l-7.522-1.555l-0.458-12.491
			C1676.231,1219.395,1680.567,1219.047,1684.979,1218.483z"/>
		<path style="fill:#FFB27D;" d="M1531.287,1094.499c-20.729,12.904-42.192-4.631-42.192-4.631s8.219-21.047,3.083-48.809
			c-0.208-1.13,36.157,13.859,37.254,14.101c0.011,0,0.022,0,0.022,0s0.011,0.088,0.033,0.252c0.021,0.176,0.043,0.352,0.065,0.527
			c0.57,4.894,0.966,9.755,1.229,14.287C1531.583,1083.789,1531.287,1094.499,1531.287,1094.499z"/>
		<path style="fill:#ED975D;" d="M1530.782,1070.227c-16.515-1.493-29.21-10.754-33.424-15.967
			c-1.284-1.568,31.109,0.823,32.075,0.9c0.011,0,0.022,0,0.022,0s0.011,0.088,0.033,0.252c0.021,0.132,0.043,0.308,0.065,0.527
			C1530.123,1060.833,1530.519,1065.694,1530.782,1070.227z"/>
		<path style="fill:#FFB27D;" d="M1536.212,1052.852c0,0-35.653,15.762-45.127-6.593c-9.474-22.354-20.456-35.375,1.907-46.384
			c22.363-11.008,30.43-4.365,35.407,2.327C1533.376,1008.894,1545.242,1048.176,1536.212,1052.852z"/>
		<path style="fill:#2A4E96;" d="M1493.552,1052.371c-0.448,0.422-8.012,4.392-28.887-23.036c-3.277-4.306-6.83-14.283-2.973-24.41
			c3.858-10.128,22.239-20.969,38.04-27.149c7.416-2.9,14.481-2.335,19.892-0.919c6.661,1.744,10.581,8.725,8.691,15.346
			c-2.987,10.462-10.401,16.885-19.781,16.603c-6.286-0.19-5.888,12.643-5.771,15.704c0.116,3.062-0.1,5.664-8.012,4.394
			c-6.78-1.088-2.955,7.864-0.678,11.893c1.124,1.987,1.749,4.241,1.614,6.521
			C1495.583,1049.074,1495.048,1050.962,1493.552,1052.371z"/>
		<path style="fill:#2C3A64;" d="M1438.988,1647.801h-22.978c-4.817,0-10.169-4.823-11.509-13.652
			c-1.34-8.836-11.241-13.653-13.385-20.881c-2.144-7.229,8.836-17.404,8.836-17.404l1.835-2.358l1.909-2.459l18.202,4.281
			c0,0,0.449,4.334,0.73,9.854c0.194,3.985,0.302,8.595,0.074,12.635c-0.536,9.64,2.7,20.017,11.261,21.893
			C1442.532,1641.584,1438.988,1647.801,1438.988,1647.801z"/>
		<path style="fill:#2C3A64;" d="M1598.95,1647.801h-60.909c-0.583-0.113-1.025-0.241-1.292-0.375
			c-4.066-2.036-2.794-17.605-2.305-22.415c0.094-0.891,0.161-1.413,0.161-1.413s21.417-17.13,24.365-4.014
			c0.094,0.409,0.201,0.812,0.315,1.206v0.007c3.718,12.273,20.338,17.847,29.938,19.4
			C1596.559,1641.391,1598.461,1645.664,1598.95,1647.801z"/>
		<path style="fill:#FF9E55;" d="M1586.674,1296.563c0,0-3.253,40.582-7.076,89.364c-5.196,66.267-11.445,147.664-12.063,163.084
			c-1.068,26.776-5.357,69.607-5.357,69.607s-10.167,10.175-30.519,5.887c0,0-18.135-61.143-23.314-125.835
			c-0.081-1.06-0.161-2.128-0.241-3.195c-4.819-65.857-12.312-204.533-12.312-204.533L1586.674,1296.563z"/>
		<path style="fill:#2A4E96;" d="M1577.64,1290.941c-8.586,0.519-99.18-2.907-99.202-7.967c-0.082-17.598-3.762-46.082-8.354-80.678
			c-0.84-6.447-1.502-12.846-1.992-19.168c-1.268-16.468-1.323-32.324-0.097-46.649c2.282-26.614,9.201-43.699,20.731-53.706
			c0,0,10.852,0.895,20.849,2.397c11.319,1.702,15.5,0.991,23.278-1.183l13.828,11.905c8.273,7.71,14.905,15.76,17.568,26.897
			C1564.25,1122.791,1578.406,1290.888,1577.64,1290.941z"/>
		<path style="fill:#1B407A;" d="M1483.013,1169.234c0,0,9.535,30.205,41.357,44.836c31.822,14.631,12.802-27.799,12.802-27.799
			L1483.013,1169.234z"/>
		<path style="fill:#FF9E55;" d="M1564.25,1122.791l-24.744,5.753l-34.052,92.222c-4.891,13.243-16.161,21.418-30.279,21.418
			l-0.047,2.2l1.68,43.946l109.726,9.973c0,0,0.519-55.004-1.446-72.619C1582.178,1199.6,1564.25,1122.791,1564.25,1122.791z"/>
		<path style="fill:#2A4E96;" d="M1682.909,1225.475c0.781-7.205-2.913-8.553-2.913-8.553s-72.933-16.151-79.101-18.357
			c-6.167-2.206-57.407-59.81-57.407-59.81s-19.571-23.871-36.525-19.423c-14.732,3.865-20.864,15.003-23.22,25.748
			c-2.808,12.805-11.632,16.874-0.731,24.154c24.47,16.344,87.743,57.712,99.427,61.633c26.005,8.729,96.948,4.37,96.948,4.37
			S1682.295,1231.134,1682.909,1225.475z"/>
		<path style="fill:#ED823A;" d="M1513.863,1101.832c-5.762-5.353-25.136-19.059-25.136-19.059s0.779-1.296,1.922-2.439
			c1.121-1.12,2.459-1.935,2.459-1.935c2.466-0.521,21.558,13.841,27.915,19.503c7.656,6.818,28.905,28.218,28.905,28.218
			l-10.422,2.424C1539.506,1128.544,1520.646,1108.133,1513.863,1101.832z"/>
		<g>
			<path style="fill:#FF9E55;" d="M1537.729,1000.074c0,0-14.214,7.999-19.458,9.338c-1.561,0.398-24.787,6.239-24.787,6.239
				l-33.266,12.228c0,0-11.285-24.297,2.638-43.337l0.005-0.007c0.349-0.479,0.715-0.956,1.096-1.424
				c3.837-4.733,9.333-9.08,17.074-12.572C1520.258,952.844,1537.289,998.617,1537.729,1000.074z"/>
			<g>
				<path style="fill:#E27830;" d="M1518.598,1008.609l-6.335,2.031c-6.282-5.799-29.24-25.7-49.662-25.594
					c0.089-0.201,0.173-0.365,0.255-0.504l0.005-0.007c0.266-0.477,0.505-0.734,0.885-1.439c0.073,0.005,0.139,0.011,0.211,0.016
					C1490.375,984.626,1513.24,1003.413,1518.598,1008.609z"/>
			</g>
			<path style="fill:#FF9E55;" d="M1493.484,1015.651c0,0-3.525,5.795-3.815,10.81c-0.291,5.015-22.082,11.907-24.069,9.684
				c-1.988-2.225-5.382-8.266-5.382-8.266L1493.484,1015.651z"/>
			<path style="fill:#E27830;" d="M1493.484,1015.651c0,0,41.238-6.616,58.246-19.881c1.296-1.011,0.673-3.093-0.967-3.195
				c-2.945-0.183-7.894-0.086-15.872,1.047C1534.891,993.622,1522.371,1008.477,1493.484,1015.651z"/>
		</g>
		<path style="fill:#ED823A;" d="M1574.555,1293.86c0,0,2.105,25.32-9.606,72.83c-8.592,34.858-56.604,131.979-56.604,131.979
			c-0.081-1.06-0.161-2.128-0.241-3.195c-4.819-65.857-12.312-204.533-12.312-204.533L1574.555,1293.86z"/>
		<path style="fill:#FF9E55;" d="M1574.555,1293.86c0,0-61.363,154.494-99.914,223.563s-50.597,88.345-50.597,88.345
			s-22.086-8.835-24.094-14.858c0,0,14.742-133.342,40.558-165.846c14.588-18.367,31.724-73.486,32.527-92.762
			s2.952-65.452,2.952-65.452L1574.555,1293.86z"/>
	</g>
	<g style="opacity:0.5;">
		<path style="fill:#C3DAFC;" d="M2494.215,383.546c5.498,1.843,10.984,3.764,16.438,5.772l-35.224-0.154h-0.011l-9.272-0.033
			h-0.011l-108.196-0.483l-9.294-0.033h-0.011l-108.206-0.482l-9.295-0.033h-0.011l-108.207-0.483l-9.294-0.033h-0.011
			l-108.207-0.483l-9.294-0.033h-0.012l-108.206-0.483l-9.294-0.033h-0.012l-108.195-0.483l-9.294-0.033h-0.011l-108.207-0.483
			l-9.306-0.043h-0.011l-108.195-0.472l-9.305-0.044h-0.011l-108.195-0.472l-9.306-0.044h-0.011l-108.185-0.472l-9.305-0.044h-0.011
			l-108.195-0.472l-9.305-0.044h-0.011l-108.195-0.472l-9.306-0.044h-0.011l-26.248-0.109c2.327-1.92,4.675-3.819,7.056-5.673h0.011
			l19.543,0.077h0.011l117.49,0.527h0.033l117.479,0.516h0.033l117.468,0.516h0.033l117.479,0.516h0.033l117.479,0.516h0.033
			l117.479,0.516h0.033l117.468,0.516h0.033l117.479,0.516h0.033l117.479,0.516h0.033l117.479,0.516h0.032l117.479,0.516h0.033
			l117.479,0.516L2494.215,383.546z"/>
		<path style="fill:#C3DAFC;" d="M2609.916,438.884c2.678,1.887,5.3,3.808,7.868,5.739l-1640.656-7.198
			c1.449-1.92,2.93-3.819,4.444-5.685l33.929,0.143l9.305,0.044l108.207,0.472l9.294,0.044l108.207,0.472h0.011l9.294,0.044
			l108.207,0.472h0.011l9.294,0.043l108.207,0.472h0.011l9.294,0.044h0.011l108.196,0.472h0.011l9.295,0.044h0.011l108.185,0.472
			h0.011l9.295,0.044h0.011l108.195,0.472h0.011l9.295,0.044h0.011l108.195,0.472h0.011l9.295,0.044h0.011l108.195,0.472h0.012
			l9.294,0.044h0.011l108.185,0.472h0.011l9.294,0.044h0.012l108.206,0.483h0.012l9.283,0.033h0.011l108.206,0.483h0.012
			l9.283,0.033h0.011l108.206,0.482h0.012l9.283,0.033h0.011L2609.916,438.884z"/>
		<g>
			<g>
				<path style="fill:#C3DAFC;" d="M1024.829,431.938l-2.7,4.203l-6.628-4.257l-22.067-14.177c1.13-1.262,2.261-2.513,3.402-3.753
					l27.97,17.974L1024.829,431.938z"/>
			</g>
			<g>
				
					<rect x="1095.51" y="355.855" transform="matrix(0.5405 -0.8413 0.8413 0.5405 162.1482 1110.7769)" style="fill:#C3DAFC;" width="4.993" height="102.169"/>
			</g>
			<g>
				
					<rect x="1213.019" y="356.371" transform="matrix(0.5405 -0.8413 0.8413 0.5405 215.7081 1209.8787)" style="fill:#C3DAFC;" width="4.993" height="102.168"/>
			</g>
			<g>
				
					<rect x="1330.528" y="356.887" transform="matrix(0.5405 -0.8413 0.8413 0.5405 269.2681 1308.9807)" style="fill:#C3DAFC;" width="4.993" height="102.168"/>
			</g>
			<g>
				
					<rect x="1448.038" y="357.403" transform="matrix(0.5405 -0.8413 0.8413 0.5405 322.8289 1408.084)" style="fill:#C3DAFC;" width="4.993" height="102.168"/>
			</g>
			<g>
				
					<rect x="1565.547" y="357.92" transform="matrix(0.5405 -0.8413 0.8413 0.5405 376.3866 1507.1833)" style="fill:#C3DAFC;" width="4.993" height="102.168"/>
			</g>
			<g>
				
					<rect x="1683.057" y="358.436" transform="matrix(0.5405 -0.8413 0.8413 0.5405 429.949 1606.2882)" style="fill:#C3DAFC;" width="4.993" height="102.168"/>
			</g>
			<g>
				
					<rect x="1800.566" y="358.952" transform="matrix(0.5405 -0.8413 0.8413 0.5405 483.5091 1705.3903)" style="fill:#C3DAFC;" width="4.993" height="102.168"/>
			</g>
			<g>
				
					<rect x="1918.075" y="359.468" transform="matrix(0.5405 -0.8413 0.8413 0.5405 537.0678 1804.491)" style="fill:#C3DAFC;" width="4.993" height="102.169"/>
			</g>
			<g>
				
					<rect x="2035.585" y="359.984" transform="matrix(0.5405 -0.8413 0.8413 0.5405 590.6218 1903.5872)" style="fill:#C3DAFC;" width="4.993" height="102.169"/>
			</g>
			<g>
				
					<rect x="2153.094" y="360.5" transform="matrix(0.5405 -0.8413 0.8413 0.5405 644.1826 2002.6902)" style="fill:#C3DAFC;" width="4.993" height="102.169"/>
			</g>
			<g>
				
					<rect x="2270.603" y="361.016" transform="matrix(0.5405 -0.8413 0.8413 0.5405 697.7424 2101.792)" style="fill:#C3DAFC;" width="4.993" height="102.168"/>
			</g>
			<g>
				
					<rect x="2388.113" y="361.532" transform="matrix(0.5405 -0.8413 0.8413 0.5405 751.2926 2200.8853)" style="fill:#C3DAFC;" width="4.993" height="102.168"/>
			</g>
			<g>
				
					<rect x="2505.622" y="362.048" transform="matrix(0.5405 -0.8413 0.8413 0.5405 804.8616 2299.9956)" style="fill:#C3DAFC;" width="4.993" height="102.169"/>
			</g>
		</g>
	</g>
	<g>
		
			<rect x="1786.982" y="1219.424" transform="matrix(-1 -1.224647e-16 1.224647e-16 -1 3762.5713 2594.3662)" style="fill:#8DB0FF;" width="188.607" height="155.519"/>
		
			<rect x="1881.285" y="1219.424" transform="matrix(-1 -1.224647e-16 1.224647e-16 -1 3951.1777 2594.3662)" style="fill:#AEC3FF;" width="188.607" height="155.519"/>
		<polygon style="fill:#2A4E96;" points="1787.093,1335.502 1816.979,1335.502 1814.346,1327.093 1816.979,1321.083 
			1787.093,1321.083 		"/>
		<polygon style="fill:#618DC1;" points="1881.285,1267.553 1911.172,1267.553 1908.539,1259.143 1911.172,1253.134 
			1881.285,1253.134 		"/>
		<polygon style="fill:#2A4E96;" points="1881.285,1253.134 1851.399,1253.134 1854.032,1261.543 1851.399,1267.553 
			1881.285,1267.553 		"/>
		<polygon style="fill:#618DC1;" points="2069.896,1337.172 2040.011,1337.172 2042.643,1345.581 2040.011,1351.591 
			2069.896,1351.591 		"/>
		<rect x="2003.27" y="1229.969" style="fill:#FFFFFF;" width="54.274" height="21.115"/>
	</g>
	<g id="P297LW_1_">
		<path style="fill:#FFB27D;" d="M2402.089,1119.66c0,0-8.939,50.855-18.719,103.981c-10.622,57.747-22.235,118.181-24.429,118.937
			c-4.211,1.454-3.872-7.74-6.764-14.753c-2.323-5.638-9.39-53.922-7.066-84.036c0.564-7.35,2.453-97.957,15.018-108.656
			S2402.089,1119.66,2402.089,1119.66z"/>
		<path style="fill:#FFB27D;" d="M2349.428,1314.335c0,0,2.176,8.324-0.984,16.474c-3.159,8.149-3.83,10.476,2.016,15.051
			s12.175,11.001,16.56,9.099c4.386-1.901,1.67-39.205,1.67-39.205L2349.428,1314.335z"/>
		<path style="fill:#2A4E96;" d="M2361.582,1647.801c5.426-3.312,2.339-28.019,2.339-28.019s-25.284-20.227-28.761-4.74
			c-3.476,15.486-24.019,22.439-35.712,24.335c-8.073,1.31-10.571,5.78-11.346,8.424H2361.582z"/>
		<path style="fill:#2A4E96;" d="M2473.85,1647.801c5.426-3.312,2.339-28.019,2.339-28.019s-25.284-20.227-28.761-4.74
			c-3.476,15.486-24.019,22.439-35.712,24.335c-8.073,1.31-10.571,5.78-11.346,8.424H2473.85z"/>
		<path style="fill:#FF9843;" d="M2438.717,1361.039c-8.997,38.023-20.333,81.441-24.762,105.918
			c-0.517,2.837-0.936,5.419-1.252,7.703c-0.31,2.29-0.516,4.289-0.607,5.953c-2.352,45.849-38.588,150.673-45.07,153.115
			c-10.029,3.784-25.824-4.259-34.093-6.89c-3.42-1.1-5.735-4.55-4.97-8.056c17.945-82.504,29.009-200.582,31.408-270.925
			c1.209-35.429,2.824-60.63,2.824-60.63s88.392-23.584,88.92,6.251C2451.316,1305.04,2445.727,1331.399,2438.717,1361.039z"/>
		<path style="fill:#E27830;" d="M2438.717,1361.039c-8.997,38.023-20.333,81.441-24.762,105.918
			c-0.517,2.837-3.226,26.892-3.541,29.176l-15.475-175.814l21.943,2.023L2438.717,1361.039z"/>
		<path style="fill:#FF9843;" d="M2403.921,1303.714l31.186,325.822c0,0,23.085,7.493,43.942,1.719
			c0,0,12.124-178.138,10.984-221.683c-1.141-43.544,9.818-116.518-2.501-124.565S2403.921,1303.714,2403.921,1303.714z"/>
		<path style="fill:#2A4E96;" d="M2486.918,1216.598c0.34,3.72,1.756,73.169,1.854,75.78c0.11,2.875-7.746,8.604-35.486,12.718
			c-9.953,1.482-21.684,2.491-35.169,2.646c-34.588,0.384-47.811-14.155-47.811-14.155c-2.359,0.043,2.634-16.866,3.435-126.653
			c-0.593,0-1.24,0.11-1.811-0.109c-12.257-4.763-23.669-14.715-23.669-14.715s13.892-38.604,27.026-58.257
			c3.204-4.795,11.83-8.559,23.318-11.018c3.018-0.646,6.244-1.207,9.612-1.668c15.659-2.14,34.588-2.205,52.123,0.33
			c3.05,0.428,6.058,0.943,8.998,1.547c12.981,2.634,24.667,6.858,32.964,12.894c12.213,8.877,21.306,54.317,21.306,54.317
			s-11.507,13.058-37.403,19.422C2484.844,1195.825,2485.393,1199.381,2486.918,1216.598z"/>
		<path style="fill:#FF9843;" d="M2362.198,1287.227l10.56-131.534c0.608-7.572,7.104-13.304,14.693-12.962l71.929,2.817
			c5.924,0.231,10.704,4.937,11.007,10.858c0.883,17.275,4.185,50.835,16.535,60.19l6.517,95.217l-80.386,72.777
			c0,0-9.132-53.337-21.687-68.156C2384.342,1308.144,2362.198,1287.227,2362.198,1287.227z"/>
		<g>
			<path style="fill:#FF9843;" d="M2469.339,1083.043l-8.68,67.211l-9.021-1.427l8.702-67.331
				C2463.391,1081.924,2466.398,1082.439,2469.339,1083.043z"/>
		</g>
		<g>
			<path style="fill:#FF9843;" d="M2408.218,1081.166l-11.138,60.298l-0.933,5.059l-0.998-0.23l-7.934-1.777l11.39-61.681
				C2401.623,1082.188,2404.85,1081.627,2408.218,1081.166z"/>
		</g>
		<path style="fill:#FFB27D;" d="M2523.608,1221.934c0,0-5.396,16.407-74.819,39.105c0,0-0.789-18.543,3.432-21.021
			c13.047-7.66,44.138-30.52,45.205-34.544c0.709-2.673-6.371-22.861-15.332-43.161c16.459-1.829,27.063-3.309,39.191-9.814
			C2525.8,1184.426,2532.021,1206.77,2523.608,1221.934z"/>
		<path style="fill:#FFB27D;" d="M2440.884,1240.909c0,0-5.79-4.428-10.239-5.085c-4.448-0.657-11.941-3.492-10.727-0.859
			c1.216,2.633,9.417,6.784,9.417,6.784L2440.884,1240.909z"/>
		<g>
			<path style="fill:#233862;" d="M2429.777,1270.164l-22.623,2.762c-2.5,0.306-4.857-1.232-5.584-3.645l-15.477-51.325
				c-0.928-3.076,1.141-6.245,4.33-6.635l22.623-2.762c2.5-0.306,4.857,1.233,5.584,3.645l15.477,51.326
				C2435.035,1266.605,2432.967,1269.775,2429.777,1270.164z"/>
			<path style="fill:#192E4F;" d="M2421.766,1271.143l-22.623,2.762c-2.5,0.305-4.857-1.233-5.585-3.646l-15.476-51.325
				c-0.928-3.076,1.141-6.245,4.33-6.635l22.622-2.762c2.501-0.305,4.857,1.233,5.585,3.646l15.477,51.325
				C2427.023,1267.584,2424.955,1270.753,2421.766,1271.143z"/>
			<path style="fill:#192E4F;" d="M2405.772,1219.415L2405.772,1219.415c-0.658,0.08-1.374-0.38-1.59-1.021l-15.156-45.031
				c-0.216-0.643,0.146-1.233,0.805-1.313l0,0c0.659-0.081,1.374,0.379,1.591,1.021l15.156,45.031
				C2406.793,1218.743,2406.432,1219.334,2405.772,1219.415z"/>
		</g>
		<path style="fill:#FFB27D;" d="M2452.221,1240.019c0,0-4.027,2.492-6.892,1.739c-2.368-0.623-4.445-0.849-7.177-2.707
			c-2.885-1.963-9.264,0.633-11.146,1.888c-5.275,3.518-23.085,3.375-23.085,6.892c0,3.518,7.747,13.403,17.126,16.335
			c9.379,2.931,27.747-3.127,27.747-3.127L2452.221,1240.019z"/>
		<path style="fill:#FFB27D;" d="M2452.439,1079.883c0.385,10.446-8.877,15.538-22.758,13.552
			c-13.881-1.976-14.156-12.751-14.156-12.751l0.341-10.425l0.396-12.333l0.361-11.018l33.601,4.554
			c-0.11,0.834-0.077,2.776,0.044,5.322v0.011C2450.586,1063.4,2451.529,1074.056,2452.439,1079.883z"/>
		<path style="fill:#ED975D;" d="M2450.278,1056.784c0,0,0,0-0.011,0.011c-0.318,0.45-7.988,10.918-34.401,13.464l0.396-12.333
			l34.006-1.142H2450.278z"/>
		<path style="fill:#FFB27D;" d="M2409.796,1063.742c0,0,41.345,8.353,46.149-17.475c4.805-25.828,13.377-42.145-12.817-48.569
			c-26.194-6.425-33.171,2.474-36.872,10.705C2402.556,1016.634,2399.164,1060.904,2409.796,1063.742z"/>
		<path style="fill:#233862;" d="M2454.041,1052.007c0,0,14.376,3.239,15.737-22.927c0.524-10.076,3.03-45.45-25.755-44.238
			s-41.899,18.037-44.52,20.994c-19.646,22.172,28.158,5.67,34.521,10.821c6.363,5.151,0.304,13.635,7.575,16.665
			c7.271,3.029,13.029,3.029,11.816,9.695C2452.205,1049.684,2454.041,1052.007,2454.041,1052.007z"/>
		<path style="fill:#FF9E55;" d="M2395.653,1006.349c0,0,15.404,5.359,20.802,5.751c1.607,0.116,25.5,1.759,25.5,1.759l34.904,6.155
			c0,0,6.812-25.91-10.259-42.189l-0.006-0.006c-0.428-0.411-0.873-0.815-1.331-1.207c-4.613-3.98-10.791-7.287-19.027-9.356
			C2404.499,956.774,2395.829,1004.837,2395.653,1006.349z"/>
		<g>
			<path style="fill:#E27830;" d="M2415.991,1011.367l6.595,0.879c5.158-6.817,24.236-30.465,44.354-33.97
				c-0.123-0.182-0.234-0.328-0.34-0.451l-0.006-0.006c-0.346-0.422-0.627-0.633-1.126-1.26c-0.069,0.017-0.135,0.035-0.205,0.053
				C2439.53,982.772,2420.347,1005.306,2415.991,1011.367z"/>
		</g>
		<path style="fill:#FF9E55;" d="M2441.955,1013.858c0,0,4.494,5.08,5.666,9.965c1.173,4.886,23.84,7.816,25.402,5.276
			c1.563-2.541,3.836-9.086,3.836-9.086L2441.955,1013.858z"/>
		<path style="fill:#E27830;" d="M2441.955,1013.858c0,0-41.758,0.778-60.844-9.271c-1.454-0.766-1.209-2.926,0.388-3.315
			c2.866-0.701,7.754-1.481,15.808-1.776C2397.307,999.496,2412.254,1011.904,2441.955,1013.858z"/>
	</g>
	<rect x="290.045" y="1331.473" style="fill:#AEC3FF;" width="446.271" height="324.6"/>
	<g>
		<polygon style="fill:#AEC3FF;" points="792.84,963.744 731.986,963.744 731.986,1647.801 835.174,1647.801 835.174,1310.415 
			792.84,1137.08 		"/>
		<g>
			<rect x="792.84" y="963.744" style="fill:#D2E0FF;" width="337.344" height="173.336"/>
			<rect x="835.174" y="1310.415" style="fill:#D2E0FF;" width="337.343" height="337.386"/>
			<polygon style="fill:#C1D4F7;" points="1172.517,1310.415 835.174,1310.415 792.84,1137.08 1130.184,1137.08 			"/>
			<g>
				<g>
					<g>
						<polygon style="fill:#AEC3FF;" points="840.741,1171.51 831.921,1171.51 828.548,1158.949 837.368,1158.949 						"/>
						<polygon style="fill:#AEC3FF;" points="860.807,1171.51 851.987,1171.51 848.613,1158.949 857.433,1158.949 						"/>
						<polygon style="fill:#AEC3FF;" points="880.872,1171.51 872.052,1171.51 868.678,1158.949 877.498,1158.949 						"/>
						<polygon style="fill:#AEC3FF;" points="900.937,1171.51 892.117,1171.51 888.744,1158.949 897.563,1158.949 						"/>
						<polygon style="fill:#AEC3FF;" points="921.002,1171.51 912.183,1171.51 908.809,1158.949 917.629,1158.949 						"/>
						<polygon style="fill:#AEC3FF;" points="941.067,1171.51 932.248,1171.51 928.874,1158.949 937.694,1158.949 						"/>
					</g>
					<g>
						<polygon style="fill:#AEC3FF;" points="847.039,1194.958 838.219,1194.958 834.845,1182.396 843.665,1182.396 						"/>
						<polygon style="fill:#AEC3FF;" points="867.104,1194.958 858.284,1194.958 854.911,1182.396 863.73,1182.396 						"/>
						<polygon style="fill:#AEC3FF;" points="887.169,1194.958 878.349,1194.958 874.976,1182.396 883.795,1182.396 						"/>
						<polygon style="fill:#AEC3FF;" points="907.234,1194.958 898.415,1194.958 895.041,1182.396 903.861,1182.396 						"/>
						<polygon style="fill:#AEC3FF;" points="927.3,1194.958 918.48,1194.958 915.106,1182.396 923.926,1182.396 						"/>
						<polygon style="fill:#AEC3FF;" points="947.365,1194.958 938.545,1194.958 935.171,1182.396 943.991,1182.396 						"/>
					</g>
				</g>
				<g>
					<g>
						<polygon style="fill:#AEC3FF;" points="853.561,1219.242 844.741,1219.242 841.368,1206.682 850.188,1206.682 						"/>
						<polygon style="fill:#AEC3FF;" points="873.626,1219.242 864.807,1219.242 861.433,1206.682 870.253,1206.682 						"/>
						<polygon style="fill:#AEC3FF;" points="893.691,1219.242 884.872,1219.242 881.498,1206.682 890.318,1206.682 						"/>
						<polygon style="fill:#AEC3FF;" points="913.757,1219.242 904.937,1219.242 901.563,1206.682 910.383,1206.682 						"/>
						<polygon style="fill:#AEC3FF;" points="933.822,1219.242 925.002,1219.242 921.628,1206.682 930.448,1206.682 						"/>
						<polygon style="fill:#AEC3FF;" points="953.887,1219.242 945.067,1219.242 941.694,1206.682 950.514,1206.682 						"/>
					</g>
					<g>
						<polygon style="fill:#AEC3FF;" points="859.858,1242.69 851.039,1242.69 847.665,1230.129 856.485,1230.129 						"/>
						<polygon style="fill:#AEC3FF;" points="879.924,1242.69 871.103,1242.69 867.73,1230.129 876.55,1230.129 						"/>
						<polygon style="fill:#AEC3FF;" points="899.989,1242.69 891.169,1242.69 887.795,1230.129 896.615,1230.129 						"/>
						<polygon style="fill:#AEC3FF;" points="920.054,1242.69 911.234,1242.69 907.861,1230.129 916.681,1230.129 						"/>
						<polygon style="fill:#AEC3FF;" points="940.119,1242.69 931.299,1242.69 927.926,1230.129 936.746,1230.129 						"/>
						<polygon style="fill:#AEC3FF;" points="960.185,1242.69 951.365,1242.69 947.991,1230.129 956.811,1230.129 						"/>
					</g>
				</g>
			</g>
			<g>
				<g>
					<g>
						<polygon style="fill:#AEC3FF;" points="980.384,1171.51 971.563,1171.51 968.19,1158.949 977.01,1158.949 						"/>
						<polygon style="fill:#AEC3FF;" points="1000.449,1171.51 991.629,1171.51 988.255,1158.949 997.075,1158.949 						"/>
						<polygon style="fill:#AEC3FF;" points="1020.514,1171.51 1011.694,1171.51 1008.32,1158.949 1017.141,1158.949 						"/>
						<polygon style="fill:#AEC3FF;" points="1040.579,1171.51 1031.759,1171.51 1028.386,1158.949 1037.206,1158.949 						"/>
						<polygon style="fill:#AEC3FF;" points="1060.645,1171.51 1051.825,1171.51 1048.451,1158.949 1057.271,1158.949 						"/>
						<polygon style="fill:#AEC3FF;" points="1080.709,1171.51 1071.89,1171.51 1068.516,1158.949 1077.336,1158.949 						"/>
					</g>
					<g>
						<polygon style="fill:#AEC3FF;" points="986.681,1194.958 977.861,1194.958 974.487,1182.396 983.308,1182.396 						"/>
						<polygon style="fill:#AEC3FF;" points="1006.746,1194.958 997.926,1194.958 994.553,1182.396 1003.373,1182.396 						"/>
						<polygon style="fill:#AEC3FF;" points="1026.812,1194.958 1017.991,1194.958 1014.618,1182.396 1023.438,1182.396 						"/>
						<polygon style="fill:#AEC3FF;" points="1046.876,1194.958 1038.057,1194.958 1034.683,1182.396 1043.503,1182.396 						"/>
						<polygon style="fill:#AEC3FF;" points="1066.942,1194.958 1058.122,1194.958 1054.749,1182.396 1063.568,1182.396 						"/>
						<polygon style="fill:#AEC3FF;" points="1087.007,1194.958 1078.187,1194.958 1074.813,1182.396 1083.633,1182.396 						"/>
					</g>
				</g>
				<g>
					<g>
						<polygon style="fill:#AEC3FF;" points="993.203,1219.242 984.383,1219.242 981.01,1206.682 989.83,1206.682 						"/>
						<polygon style="fill:#AEC3FF;" points="1013.269,1219.242 1004.449,1219.242 1001.075,1206.682 1009.895,1206.682 						"/>
						<polygon style="fill:#AEC3FF;" points="1033.333,1219.242 1024.514,1219.242 1021.14,1206.682 1029.96,1206.682 						"/>
						<polygon style="fill:#AEC3FF;" points="1053.399,1219.242 1044.579,1219.242 1041.206,1206.682 1050.025,1206.682 						"/>
						<polygon style="fill:#AEC3FF;" points="1073.464,1219.242 1064.645,1219.242 1061.271,1206.682 1070.091,1206.682 						"/>
						<polygon style="fill:#AEC3FF;" points="1093.529,1219.242 1084.709,1219.242 1081.336,1206.682 1090.156,1206.682 						"/>
					</g>
					<g>
						<polygon style="fill:#AEC3FF;" points="999.5,1242.69 990.681,1242.69 987.307,1230.129 996.127,1230.129 						"/>
						<polygon style="fill:#AEC3FF;" points="1019.566,1242.69 1010.746,1242.69 1007.373,1230.129 1016.192,1230.129 						"/>
						<polygon style="fill:#AEC3FF;" points="1039.631,1242.69 1030.811,1242.69 1027.438,1230.129 1036.257,1230.129 						"/>
						<polygon style="fill:#AEC3FF;" points="1059.696,1242.69 1050.876,1242.69 1047.503,1230.129 1056.323,1230.129 						"/>
						<polygon style="fill:#AEC3FF;" points="1079.762,1242.69 1070.941,1242.69 1067.568,1230.129 1076.388,1230.129 						"/>
						<polygon style="fill:#AEC3FF;" points="1099.827,1242.69 1091.007,1242.69 1087.633,1230.129 1096.453,1230.129 						"/>
					</g>
				</g>
			</g>
			<rect x="818.736" y="1019.102" style="fill:#2B478B;" width="125.242" height="100.908"/>
			<rect x="935.171" y="1019.102" style="fill:#699DEE;" width="8.948" height="100.908"/>
			<g>
				<path style="fill:#AEC3FF;" d="M1160.579,1613.351H858.873v-124.067h301.707V1613.351z M860.844,1611.38h297.763v-120.126
					H860.844V1611.38z"/>
			</g>
			<path style="fill:#FFFFFF;" d="M1020.903,992.723c0,3.761-2.141,6.81-4.782,6.81c-2.641,0-4.781-3.049-4.781-6.81
				c0-3.761,2.141-6.81,4.781-6.81C1018.762,985.913,1020.903,988.962,1020.903,992.723z"/>
			<path style="fill:#FF9E55;" d="M1043.265,992.723c0,3.761-2.141,6.81-4.781,6.81c-2.641,0-4.782-3.049-4.782-6.81
				c0-3.761,2.141-6.81,4.782-6.81C1041.124,985.913,1043.265,988.962,1043.265,992.723z"/>
			<path style="fill:#699DEE;" d="M1065.627,992.723c0,3.761-2.141,6.81-4.782,6.81c-2.641,0-4.782-3.049-4.782-6.81
				c0-3.761,2.141-6.81,4.782-6.81C1063.486,985.913,1065.627,988.962,1065.627,992.723z"/>
			<path style="fill:#FFFFFF;" d="M1087.989,992.723c0,3.761-2.141,6.81-4.782,6.81s-4.782-3.049-4.782-6.81
				c0-3.761,2.141-6.81,4.782-6.81S1087.989,988.962,1087.989,992.723z"/>
			<path style="fill:#FF9E55;" d="M1110.351,992.723c0,3.761-2.141,6.81-4.782,6.81c-2.641,0-4.782-3.049-4.782-6.81
				c0-3.761,2.141-6.81,4.782-6.81C1108.21,985.913,1110.351,988.962,1110.351,992.723z"/>
			<g>
				<path style="fill:#AEC3FF;" d="M1111.336,1101.525h-99.054v-83.409h99.054V1101.525z M1014.254,1099.555h95.11v-79.468h-95.11
					V1099.555z"/>
			</g>
			<rect x="853.06" y="1029.883" style="fill:#E9F3FE;" width="15.288" height="2.826"/>
			<g>
				<rect x="823.366" y="1029.883" style="fill:#E9F3FE;" width="24.098" height="2.826"/>
				<rect x="823.366" y="1037.42" style="fill:#E9F3FE;" width="36.456" height="2.826"/>
				<rect x="864.746" y="1037.42" style="fill:#E9F3FE;" width="24.181" height="2.826"/>
				<rect x="871.655" y="1029.883" style="fill:#E9F3FE;" width="26.401" height="2.826"/>
			</g>
			<g>
				<rect x="823.366" y="1050.412" style="fill:#E9F3FE;" width="24.098" height="2.826"/>
				<rect x="823.366" y="1057.949" style="fill:#E9F3FE;" width="36.456" height="2.826"/>
				<rect x="864.746" y="1057.949" style="fill:#E9F3FE;" width="24.181" height="2.826"/>
				<rect x="853.06" y="1050.412" style="fill:#E9F3FE;" width="15.288" height="2.826"/>
				<rect x="871.655" y="1050.412" style="fill:#E9F3FE;" width="26.401" height="2.826"/>
			</g>
			<g>
				<rect x="823.366" y="1073.022" style="fill:#E9F3FE;" width="24.098" height="2.826"/>
				<rect x="823.366" y="1080.559" style="fill:#E9F3FE;" width="36.456" height="2.826"/>
				<rect x="864.746" y="1080.559" style="fill:#E9F3FE;" width="24.181" height="2.826"/>
				<rect x="853.06" y="1073.022" style="fill:#E9F3FE;" width="15.288" height="2.826"/>
				<rect x="871.655" y="1073.022" style="fill:#E9F3FE;" width="26.401" height="2.826"/>
			</g>
			<g>
				<rect x="823.366" y="1094.795" style="fill:#E9F3FE;" width="24.098" height="2.826"/>
				<rect x="823.366" y="1102.332" style="fill:#E9F3FE;" width="36.456" height="2.826"/>
				<rect x="864.746" y="1102.332" style="fill:#E9F3FE;" width="24.181" height="2.826"/>
				<rect x="853.06" y="1094.795" style="fill:#E9F3FE;" width="15.288" height="2.826"/>
				<rect x="871.655" y="1094.795" style="fill:#E9F3FE;" width="26.401" height="2.826"/>
			</g>
		</g>
	</g>
	<rect x="278.237" y="1331.473" style="fill:#D2E0FF;" width="556.936" height="19.823"/>
	<g>
		<g>
			<g>
				<path style="fill:#D86713;" d="M406.151,1195.305l-10.692,127.135c0,0-1.12,7.707,4.612,7.721c9.425,0.022,46.913,0,46.913,0
					s-7.094-1.604-7.008-5.214c0.101-4.255,12.497-130.845,12.497-130.845L406.151,1195.305z"/>
				<path style="fill:#EE9849;" d="M450.026,1327.854c-1.853,0.005-37.659,0.117-46.838,0c-4-0.05-4.702-3.557-4.735-5.826
					c-0.016-1.089,0.122-1.893,0.122-1.893l0.278-3.305l0.709-8.422l0.626-7.441l0.804-9.562l0.678-8.07l7.597-90.339l46.323-1.201
					c0,0-5.221,52.977-8.914,91.54c-0.413,4.297-0.805,8.416-1.167,12.262c-0.118,1.229-0.23,2.429-0.34,3.598
					c-0.342,3.648-0.655,6.999-0.928,9.957c-0.144,1.56-0.276,3.008-0.396,4.336c-0.471,5.2-0.747,8.521-0.751,9.152
					c-0.002,0.368,0.029,0.711,0.09,1.029C443.944,1327.721,449.33,1327.854,450.026,1327.854z"/>
				<polygon style="fill:#F1A34F;" points="293.655,1126.122 319.7,1230.738 323.266,1245.066 335.396,1293.794 560.76,1293.794 
					516.049,1126.122 				"/>
				<polygon style="fill:#EE9849;" points="293.655,1126.122 290.045,1127.325 330.598,1297.434 335.397,1293.794 				"/>
				<polygon style="fill:#D86713;" points="330.598,1297.434 554.574,1297.434 560.759,1293.794 335.397,1293.794 				"/>
				
					<rect x="409.251" y="1327.904" transform="matrix(-1 -1.224647e-16 1.224647e-16 -1 866.9976 2658.1133)" style="fill:#F1A34F;" width="48.495" height="2.305"/>
				<polygon style="fill:#F1A34F;" points="549.842,1262.897 513.274,1128.339 293.295,1128.339 293.295,1126.122 516.049,1126.122 
					552.495,1262.599 				"/>
				<polygon style="fill:#D86713;" points="445.418,1297.433 445.168,1299.194 399.561,1308.408 400.188,1300.967 400.486,1297.433 
									"/>
				<path style="opacity:0.4;fill:#D86713;" d="M450.026,1327.854c-1.853,0.005-37.659,0.117-46.838,0
					c-4-0.05-4.702-3.557-4.735-5.826l45.391-8.54c-0.471,5.2-0.747,8.521-0.751,9.152c-0.002,0.368,0.029,0.711,0.09,1.029
					C443.944,1327.721,449.33,1327.854,450.026,1327.854z"/>
				<polygon style="opacity:0.4;fill:#D86713;" points="434.395,1259.851 335.397,1293.794 323.266,1245.066 				"/>
				<polygon style="fill:#AEC3FF;" points="293.655,1126.122 516.049,1126.122 552.133,1260.877 326.057,1260.877 				"/>
			</g>
			<polygon style="fill:#8AA8ED;" points="541.644,1255.038 333.415,1255.038 309.834,1161.097 308.027,1153.893 306.484,1147.748 
				302.867,1133.34 508.095,1133.34 512.066,1147.748 513.76,1153.893 515.746,1161.097 			"/>
			<g>
				<polygon style="fill:#F9DDBF;" points="488.063,1139.909 478.7,1140.041 478.492,1139.228 487.854,1139.096 				"/>
				<polygon style="fill:#F9DDBF;" points="485.997,1142.152 479.265,1142.247 479.057,1141.434 485.789,1141.339 				"/>
				<polygon style="fill:#F9DDBF;" points="493.73,1142.044 486.999,1142.139 486.79,1141.324 493.522,1141.229 				"/>
				<polygon style="fill:#F9DDBF;" points="499.326,1141.965 495.154,1142.023 494.945,1141.21 499.118,1141.151 				"/>
				<polygon style="fill:#F9DDBF;" points="495.576,1139.804 489.8,1139.885 489.591,1139.071 495.368,1138.99 				"/>
				<polygon style="fill:#F9DDBF;" points="503.467,1139.692 497.69,1139.773 497.482,1138.96 503.258,1138.879 				"/>
			</g>
			<g>
				<polygon style="fill:#F9DDBF;" points="513.038,1246.682 503.675,1246.813 503.467,1245.999 512.83,1245.867 				"/>
				<polygon style="fill:#F9DDBF;" points="510.972,1248.925 504.24,1249.02 504.032,1248.205 510.763,1248.11 				"/>
				<polygon style="fill:#F9DDBF;" points="518.706,1248.815 511.974,1248.91 511.766,1248.097 518.497,1248.002 				"/>
				<polygon style="fill:#F9DDBF;" points="524.301,1248.736 520.129,1248.796 519.92,1247.981 524.093,1247.923 				"/>
				<polygon style="fill:#F9DDBF;" points="520.551,1246.575 514.774,1246.657 514.566,1245.843 520.342,1245.762 				"/>
				<polygon style="fill:#F9DDBF;" points="528.441,1246.465 522.665,1246.546 522.456,1245.732 528.233,1245.65 				"/>
			</g>
			<g>
				<g>
					<polygon style="fill:#F9DDBF;" points="341.777,1146.114 319.828,1146.061 319.395,1144.218 341.343,1144.271 					"/>
					<polygon style="fill:#F9DDBF;" points="336.785,1151.096 321.004,1151.057 320.57,1149.214 336.351,1149.252 					"/>
					<polygon style="fill:#F9DDBF;" points="354.914,1151.14 339.134,1151.102 338.7,1149.258 354.48,1149.297 					"/>
					<polygon style="fill:#F9DDBF;" points="368.032,1151.172 358.25,1151.148 357.817,1149.305 367.598,1149.329 					"/>
					<polygon style="fill:#F9DDBF;" points="359.389,1146.157 345.848,1146.125 345.414,1144.281 358.955,1144.314 					"/>
					<polygon style="fill:#F9DDBF;" points="377.886,1146.203 364.345,1146.17 363.912,1144.327 377.452,1144.36 					"/>
				</g>
				<g>
					<g>
						<polygon style="fill:#F9DDBF;" points="342.189,1162.342 323.65,1162.297 323.216,1160.454 341.756,1160.499 						"/>
						<polygon style="fill:#F9DDBF;" points="355.911,1162.376 345.556,1162.351 345.123,1160.508 355.478,1160.533 						"/>
						<polygon style="fill:#F9DDBF;" points="376.486,1162.426 360.609,1162.387 360.176,1160.544 376.052,1160.583 						"/>
					</g>
					<g>
						<polygon style="fill:#F9DDBF;" points="346.739,1167.195 324.79,1167.142 324.356,1165.299 346.305,1165.353 						"/>
						<polygon style="fill:#F9DDBF;" points="341.747,1172.176 325.966,1172.138 325.533,1170.295 341.313,1170.333 						"/>
						<polygon style="fill:#F9DDBF;" points="359.876,1172.221 344.096,1172.182 343.662,1170.339 359.442,1170.378 						"/>
						<polygon style="fill:#F9DDBF;" points="372.994,1172.253 363.212,1172.229 362.779,1170.386 372.56,1170.41 						"/>
						<polygon style="fill:#F9DDBF;" points="364.351,1167.238 350.81,1167.205 350.376,1165.362 363.917,1165.396 						"/>
						<polygon style="fill:#F9DDBF;" points="382.848,1167.284 369.307,1167.251 368.874,1165.408 382.415,1165.441 						"/>
					</g>
				</g>
				<g>
					<g>
						<polygon style="fill:#163560;" points="347.622,1185.42 329.082,1185.374 328.648,1183.531 347.188,1183.577 						"/>
						<polygon style="fill:#163560;" points="361.343,1185.453 350.988,1185.428 350.555,1183.585 360.91,1183.61 						"/>
						<polygon style="fill:#163560;" points="381.918,1185.504 366.042,1185.465 365.608,1183.622 381.484,1183.661 						"/>
					</g>
					<g>
						<polygon style="fill:#163560;" points="352.171,1190.273 330.223,1190.22 329.789,1188.377 351.737,1188.431 						"/>
						<polygon style="fill:#163560;" points="347.179,1195.254 331.398,1195.215 330.965,1193.373 346.745,1193.411 						"/>
						<polygon style="fill:#163560;" points="365.309,1195.299 349.528,1195.26 349.094,1193.417 364.874,1193.455 						"/>
						<polygon style="fill:#163560;" points="378.426,1195.33 368.645,1195.307 368.211,1193.464 377.992,1193.487 						"/>
						<polygon style="fill:#163560;" points="369.783,1190.316 356.242,1190.283 355.809,1188.44 369.35,1188.474 						"/>
						<polygon style="fill:#163560;" points="388.28,1190.361 374.739,1190.328 374.306,1188.485 387.847,1188.519 						"/>
					</g>
				</g>
				<g>
					<g>
						<polygon style="fill:#F9DDBF;" points="352.818,1207.497 334.279,1207.452 333.845,1205.609 352.385,1205.654 						"/>
						<polygon style="fill:#F9DDBF;" points="366.54,1207.531 356.185,1207.506 355.751,1205.663 366.106,1205.688 						"/>
						<polygon style="fill:#F9DDBF;" points="387.115,1207.581 371.238,1207.542 370.804,1205.699 386.681,1205.738 						"/>
					</g>
					<g>
						<polygon style="fill:#F9DDBF;" points="357.368,1212.351 335.419,1212.297 334.985,1210.454 356.934,1210.508 						"/>
						<polygon style="fill:#F9DDBF;" points="352.375,1217.332 336.595,1217.293 336.161,1215.45 351.942,1215.488 						"/>
						<polygon style="fill:#F9DDBF;" points="370.505,1217.376 354.725,1217.337 354.291,1215.494 370.071,1215.533 						"/>
						<polygon style="fill:#F9DDBF;" points="383.623,1217.408 373.841,1217.384 373.408,1215.541 383.189,1215.565 						"/>
						<polygon style="fill:#F9DDBF;" points="374.98,1212.394 361.439,1212.36 361.005,1210.518 374.546,1210.551 						"/>
						<polygon style="fill:#F9DDBF;" points="393.477,1212.439 379.936,1212.406 379.502,1210.563 393.043,1210.597 						"/>
					</g>
				</g>
				<g>
					<g>
						<polygon style="fill:#163560;" points="358.155,1230.171 339.616,1230.125 339.182,1228.282 357.722,1228.328 						"/>
						<polygon style="fill:#163560;" points="371.877,1230.204 361.522,1230.179 361.088,1228.336 371.443,1228.361 						"/>
						<polygon style="fill:#163560;" points="392.452,1230.255 376.575,1230.216 376.141,1228.373 392.018,1228.412 						"/>
					</g>
					<g>
						<polygon style="fill:#163560;" points="362.705,1235.024 340.756,1234.971 340.322,1233.127 362.271,1233.182 						"/>
						<polygon style="fill:#163560;" points="357.712,1240.005 341.932,1239.967 341.498,1238.123 357.279,1238.162 						"/>
						<polygon style="fill:#163560;" points="375.842,1240.049 360.061,1240.011 359.628,1238.168 375.408,1238.207 						"/>
						<polygon style="fill:#163560;" points="388.96,1240.082 379.178,1240.058 378.744,1238.215 388.526,1238.238 						"/>
						<polygon style="fill:#163560;" points="380.317,1235.067 366.776,1235.034 366.342,1233.191 379.883,1233.225 						"/>
						<polygon style="fill:#163560;" points="398.814,1235.112 385.273,1235.079 384.839,1233.236 398.38,1233.27 						"/>
					</g>
				</g>
				<g>
					<polygon style="fill:#F1A34F;" points="438.059,1147.654 416.11,1147.601 415.677,1145.758 437.625,1145.812 					"/>
					<polygon style="fill:#F1A34F;" points="433.067,1152.635 417.286,1152.597 416.852,1150.754 432.633,1150.793 					"/>
					<polygon style="fill:#F1A34F;" points="451.196,1152.68 435.416,1152.641 434.982,1150.799 450.763,1150.837 					"/>
					<polygon style="fill:#F1A34F;" points="464.314,1152.712 454.533,1152.688 454.099,1150.845 463.88,1150.869 					"/>
					<polygon style="fill:#F1A34F;" points="455.671,1147.697 442.13,1147.664 441.696,1145.821 455.237,1145.854 					"/>
					<polygon style="fill:#F1A34F;" points="474.168,1147.743 460.627,1147.71 460.193,1145.867 473.734,1145.9 					"/>
				</g>
				<g>
					<g>
						<polygon style="fill:#F1A34F;" points="438.472,1163.882 419.932,1163.837 419.498,1161.994 438.038,1162.039 						"/>
						<polygon style="fill:#F1A34F;" points="452.193,1163.916 441.838,1163.891 441.405,1162.047 451.759,1162.072 						"/>
						<polygon style="fill:#F1A34F;" points="472.768,1163.966 456.892,1163.927 456.457,1162.084 472.335,1162.123 						"/>
					</g>
					<g>
						<polygon style="fill:#F1A34F;" points="443.021,1168.735 421.072,1168.682 420.639,1166.839 442.587,1166.893 						"/>
						<polygon style="fill:#F1A34F;" points="438.029,1173.716 422.249,1173.678 421.814,1171.835 437.595,1171.873 						"/>
						<polygon style="fill:#F1A34F;" points="456.158,1173.761 440.378,1173.722 439.944,1171.879 455.725,1171.918 						"/>
						<polygon style="fill:#F1A34F;" points="469.276,1173.793 459.495,1173.769 459.06,1171.926 468.842,1171.95 						"/>
						<polygon style="fill:#F1A34F;" points="460.633,1168.778 447.092,1168.745 446.659,1166.902 460.199,1166.936 						"/>
						<polygon style="fill:#F1A34F;" points="479.13,1168.824 465.589,1168.791 465.156,1166.947 478.696,1166.981 						"/>
					</g>
				</g>
				<g>
					<g>
						<polygon style="fill:#F9DDBF;" points="443.904,1186.96 425.364,1186.914 424.93,1185.071 443.47,1185.117 						"/>
						<polygon style="fill:#F9DDBF;" points="457.625,1186.993 447.27,1186.968 446.837,1185.125 457.191,1185.15 						"/>
						<polygon style="fill:#F9DDBF;" points="478.2,1187.044 462.323,1187.005 461.89,1185.162 477.767,1185.201 						"/>
					</g>
					<g>
						<polygon style="fill:#F9DDBF;" points="448.453,1191.813 426.504,1191.76 426.071,1189.917 448.02,1189.971 						"/>
						<polygon style="fill:#F9DDBF;" points="443.461,1196.794 427.681,1196.755 427.247,1194.912 443.027,1194.951 						"/>
						<polygon style="fill:#F9DDBF;" points="461.591,1196.838 445.81,1196.8 445.376,1194.957 461.157,1194.996 						"/>
						<polygon style="fill:#F9DDBF;" points="474.708,1196.87 464.927,1196.847 464.493,1195.004 474.274,1195.027 						"/>
						<polygon style="fill:#F9DDBF;" points="466.065,1191.856 452.524,1191.823 452.091,1189.98 465.631,1190.014 						"/>
						<polygon style="fill:#F9DDBF;" points="484.563,1191.901 471.021,1191.868 470.588,1190.025 484.128,1190.059 						"/>
					</g>
				</g>
				<g>
					<g>
						<polygon style="fill:#F9DDBF;" points="449.101,1209.037 430.56,1208.992 430.127,1207.149 448.667,1207.194 						"/>
						<polygon style="fill:#F9DDBF;" points="462.822,1209.071 452.467,1209.046 452.033,1207.203 462.388,1207.229 						"/>
						<polygon style="fill:#F9DDBF;" points="483.397,1209.121 467.52,1209.082 467.086,1207.239 482.963,1207.278 						"/>
					</g>
					<g>
						<polygon style="fill:#F9DDBF;" points="453.65,1213.891 431.701,1213.837 431.268,1211.994 453.216,1212.048 						"/>
						<polygon style="fill:#F9DDBF;" points="448.658,1218.871 432.877,1218.833 432.443,1216.99 448.224,1217.029 						"/>
						<polygon style="fill:#F9DDBF;" points="466.787,1218.916 451.007,1218.877 450.573,1217.034 466.353,1217.073 						"/>
						<polygon style="fill:#F9DDBF;" points="479.905,1218.948 470.124,1218.924 469.689,1217.081 479.471,1217.105 						"/>
						<polygon style="fill:#F9DDBF;" points="471.262,1213.934 457.721,1213.9 457.287,1212.058 470.828,1212.091 						"/>
						<polygon style="fill:#F9DDBF;" points="489.759,1213.979 476.218,1213.946 475.784,1212.104 489.325,1212.137 						"/>
					</g>
				</g>
				<g>
					<g>
						<polygon style="fill:#F9DDBF;" points="454.438,1231.711 435.897,1231.665 435.464,1229.822 454.003,1229.868 						"/>
						<polygon style="fill:#F9DDBF;" points="468.159,1231.744 457.804,1231.719 457.37,1229.876 467.725,1229.901 						"/>
						<polygon style="fill:#F9DDBF;" points="488.734,1231.795 472.857,1231.756 472.423,1229.913 488.3,1229.952 						"/>
					</g>
					<g>
						<polygon style="fill:#F9DDBF;" points="458.987,1236.564 437.038,1236.51 436.604,1234.668 458.553,1234.722 						"/>
						<polygon style="fill:#F9DDBF;" points="453.995,1241.545 438.214,1241.506 437.78,1239.663 453.56,1239.702 						"/>
						<polygon style="fill:#F9DDBF;" points="472.124,1241.59 456.344,1241.551 455.91,1239.708 471.69,1239.746 						"/>
						<polygon style="fill:#F9DDBF;" points="485.242,1241.621 475.46,1241.598 475.026,1239.755 484.808,1239.778 						"/>
						<polygon style="fill:#F9DDBF;" points="476.599,1236.607 463.058,1236.574 462.624,1234.731 476.165,1234.765 						"/>
						<polygon style="fill:#F9DDBF;" points="495.096,1236.652 481.555,1236.619 481.121,1234.776 494.662,1234.81 						"/>
					</g>
				</g>
			</g>
		</g>
		<g>
			<path style="fill:#0E2C4F;" d="M555.804,1617.688c0,0-2.007,31.271-8.058,31.706c-0.805,0.058-30.688-0.008-30.688-0.008
				l-38.147-0.304c0,0,0.27-9.191,11.425-11.11c11.155-1.919,29.836-9.715,36.623-24.438
				C534.098,1598.046,555.804,1617.688,555.804,1617.688z"/>
			<path style="fill:#163560;" d="M665,1360.477c1.458,1.227,40.31,43.325,37.137,75.658c-0.932,9.496-9.113,16.637-18.655,16.637
				h-47.327c0,0-48.291,8.63-49.442,19.065c-1.152,10.437-11.033,66.689-30.616,146.63c0,0-14.431,4.969-23.183,1.421
				c-11.575-4.692-13.255-9.671-13.255-9.671s11.672-179.005,20.887-191.602c9.215-12.597,104.149-50.049,134.889-53.778
				C706.174,1361.107,665,1360.477,665,1360.477z"/>
			<path style="fill:#FFB27D;" d="M390.531,1315.827c0,0-27.459-6.386-34.484,0c-7.024,6.386-9.259,15.646-9.259,15.646h43.743
				V1315.827z"/>
			<path style="fill:#163560;" d="M488.945,1617.688c0,0-2.007,31.271-8.059,31.706c-0.805,0.058-30.688-0.008-30.688-0.008
				l-38.147-0.304c0,0,0.27-9.191,11.425-11.11c11.155-1.919,29.836-9.715,36.622-24.438
				C467.238,1598.046,488.945,1617.688,488.945,1617.688z"/>
			<path style="fill:#2B478B;" d="M700.893,1360.477c1.105,0.93,9.512,23.556,15.128,49.252
				c4.834,22.113-11.988,43.043-34.624,43.043H571.301c0,0-48.291,8.63-49.443,19.065c-1.152,10.437-11.033,66.689-30.616,146.63
				c0,0-14.481,3.801-25.787-1.031c-6.013-2.57-10.756-8.733-10.756-8.733s11.777-177.49,20.992-190.087
				c9.215-12.597,104.15-50.049,134.889-53.778C641.32,1361.107,700.893,1360.477,700.893,1360.477z"/>
			<path style="fill:#FFB27D;" d="M639.867,1200.446l-17.025,16.344l-29.01,0.009c-0.033-2.333,0.065-12.061,0.166-20.876
				c0.01-0.519,0.019-1.036,0.022-1.546c0.023-1.957,0.049-3.846,0.07-5.566c0.058-4.857,0.107-8.377,0.107-8.377l7.458-5.1
				l16.569-11.344l8.96-6.125c0.005,0.15,0.742,8.164,0.853,9.329C630.019,1187.942,639.867,1200.446,639.867,1200.446z"/>
			<path style="fill:#163560;" d="M597.69,1197.497c0.554-0.233,31.942-14.313,35.613-13.102s8.246,12.424,8.246,12.424
				l-55.271,12.495C586.278,1209.314,590.629,1200.47,597.69,1197.497z"/>
			<path style="fill:#2A4E96;" d="M733.453,1291.561c-5.98-36.877-31.23-64.478-42.034-74.822
				c-7.255-10.914-49.87-19.919-49.87-19.919s-35.304,7.981-55.271,12.495c0,0-31.151,3.381-48.719,32.437
				c-10.864,17.969-41.98,59.069-62.415,60.347c-20.435,1.277-84.613,13.729-84.613,13.729v15.786l97.843,2.684
				c1.198,0.033,2.384-0.059,3.561-0.281c8.42-1.589,44.509-8.761,62.457-18.102c2.866,46.219,6.252,116.794,22.394,128.002
				c17.074,11.854,137.141,13.439,149.856-4.629c6.507-9.246-1.471-63.996-11.44-116.789
				C727.593,1316.604,735.96,1307.022,733.453,1291.561z"/>
			<path style="fill:#EAA16E;" d="M622.542,1173.651l-1.479,0.919c0,0-13.652,9.83-26.974,14.24
				c0.058-4.857,0.107-8.377,0.107-8.377l7.458-5.1L622.542,1173.651z"/>
			<path style="fill:#FFB27D;" d="M584.03,1180.687c0,0,44.636,5.281,47.497-22.567c2.861-27.848,10.548-45.921-17.83-50.47
				c-28.378-4.549-35.016,5.508-38.232,14.57C572.25,1131.282,572.493,1178.596,584.03,1180.687z"/>
			<path style="fill:#163560;" d="M576.647,1119.367c0,0,8.426,30.211,14.528,27.691c6.102-2.52,11.678-4.583,12.477,4.849
				c0.799,9.432-6.013,21.768,13.868,19.749c19.88-2.018,38.593-57.754,31.431-66.309
				C628.286,1080.667,547.94,1089.912,576.647,1119.367z"/>
		</g>
		<g>
			<path style="fill:#77A4E5;" d="M545.035,1458.76h220.793c8.386,0,15.184-6.798,15.184-15.184v-9.873H545.035V1458.76z"/>
			<path style="fill:#F99746;" d="M518.577,1458.76h167.039c6.201,0,11.227-5.026,11.227-11.227v-2.604
				c0-6.2-5.026-11.227-11.227-11.227H518.577c-6.201,0-11.227,5.026-11.227,11.227v2.604
				C507.35,1453.733,512.376,1458.76,518.577,1458.76z"/>
			<g>
				<polygon style="fill:#2B478B;" points="657.64,1639.988 671.882,1639.988 675.878,1458.76 654.122,1458.76 				"/>
				<polygon style="fill:#2B478B;" points="595.745,1639.988 734.254,1639.988 734.254,1627.478 663.659,1621.111 595.745,1627.478 
									"/>
				
					<ellipse transform="matrix(0.7584 -0.6518 0.6518 0.7584 -889.737 875.6359)" style="fill:#2B478B;" cx="736.316" cy="1638.024" rx="11.394" ry="11.394"/>
				<path style="fill:#2B478B;" d="M609.201,1638.024c0-6.292-5.101-11.394-11.393-11.394c-6.293,0-11.394,5.102-11.394,11.394
					c0,6.293,5.101,11.394,11.394,11.394C604.1,1649.418,609.201,1644.317,609.201,1638.024z"/>
				<path style="fill:#2B478B;" d="M600.709,1470.649H729.29c6.566,0,11.89-5.323,11.89-11.89l0,0H588.82l0,0
					C588.82,1465.326,594.143,1470.649,600.709,1470.649z"/>
			</g>
			<path style="fill:#F99746;" d="M759.2,1458.76c5.988,0,10.841-4.854,10.841-10.842v-166.88c0-31.271-20.445-56.622-45.666-56.622
				H621.108c-25.22,0-45.666,25.351-45.666,56.622v177.722H759.2z"/>
			<path style="fill:#CC6A27;" d="M761.24,1458.76c10.92,0,19.772-8.853,19.772-19.772v-157.949
				c0-31.271-20.445-56.622-45.666-56.622H632.08c-25.221,0-45.666,25.351-45.666,56.622v177.722H761.24z"/>
		</g>
	</g>
	<g>
		
			<rect x="2723.131" y="1527.52" transform="matrix(-1 -1.224647e-16 1.224647e-16 -1 5592.0039 3175.2129)" style="fill:#7F9EF4;" width="145.742" height="120.174"/>
		
			<rect x="2796.002" y="1527.52" transform="matrix(-1 -1.224647e-16 1.224647e-16 -1 5737.7461 3175.2129)" style="fill:#AEC3FF;" width="145.742" height="120.174"/>
		<polygon style="fill:#5D86E2;" points="2723.216,1617.217 2746.311,1617.217 2744.275,1610.719 2746.311,1606.075 
			2723.216,1606.075 		"/>
		<polygon style="fill:#7F9EF4;" points="2796.002,1564.71 2819.097,1564.71 2817.063,1558.211 2819.097,1553.568 
			2796.002,1553.568 		"/>
		<polygon style="fill:#5D86E2;" points="2796.002,1553.568 2772.908,1553.568 2774.941,1560.066 2772.908,1564.71 
			2796.002,1564.71 		"/>
		<polygon style="fill:#7F9EF4;" points="2941.748,1618.507 2918.653,1618.507 2920.688,1625.006 2918.653,1629.648 
			2941.748,1629.648 		"/>
		<rect x="2890.263" y="1535.668" style="fill:#FFFFFF;" width="41.939" height="16.316"/>
	</g>
	<g>
		
			<rect x="2525.635" y="1527.398" transform="matrix(-1 -1.224647e-16 1.224647e-16 -1 5197.3047 3175.2129)" style="fill:#7F9EF4;" width="146.035" height="120.416"/>
		
			<rect x="2598.652" y="1527.398" transform="matrix(-1 -1.224647e-16 1.224647e-16 -1 5343.3398 3175.2129)" style="fill:#D4E4F8;" width="146.035" height="120.416"/>
		<polygon style="fill:#2A4E96;" points="2525.72,1617.276 2548.861,1617.276 2546.822,1610.765 2548.861,1606.112 
			2525.72,1606.112 		"/>
		<polygon style="fill:#618DC1;" points="2598.652,1564.664 2621.793,1564.664 2619.755,1558.152 2621.793,1553.5 2598.652,1553.5 
					"/>
		<polygon style="fill:#2A4E96;" points="2598.652,1553.5 2575.512,1553.5 2577.551,1560.011 2575.512,1564.664 2598.652,1564.664 
					"/>
		<polygon style="fill:#618DC1;" points="2744.69,1618.569 2721.551,1618.569 2723.589,1625.08 2721.551,1629.733 2744.69,1629.733 
					"/>
		<rect x="2693.102" y="1535.563" style="fill:#FFFFFF;" width="42.024" height="16.349"/>
	</g>
	<g>
		
			<rect x="2601.305" y="1414.613" transform="matrix(-1 -1.224647e-16 1.224647e-16 -1 5339.5322 2942.1289)" style="fill:#ED823A;" width="136.923" height="112.902"/>
		
			<rect x="2669.766" y="1414.613" transform="matrix(-1 -1.224647e-16 1.224647e-16 -1 5476.4541 2942.1289)" style="fill:#FF9E55;" width="136.923" height="112.902"/>
		<polygon style="fill:#DD732C;" points="2601.385,1498.883 2623.081,1498.883 2621.17,1492.777 2623.081,1488.415 
			2601.385,1488.415 		"/>
		<polygon style="fill:#FFB27D;" points="2669.766,1449.553 2691.463,1449.553 2689.552,1443.447 2691.463,1439.086 
			2669.766,1439.086 		"/>
		<polygon style="fill:#DD732C;" points="2669.766,1439.086 2648.069,1439.086 2649.98,1445.19 2648.069,1449.553 
			2669.766,1449.553 		"/>
		<polygon style="fill:#FFB27D;" points="2806.692,1500.095 2784.995,1500.095 2786.906,1506.2 2784.995,1510.563 
			2806.692,1510.563 		"/>
		<rect x="2758.322" y="1422.269" style="fill:#FFFFFF;" width="39.402" height="15.329"/>
	</g>
	<g>
		<g>
			<rect x="953.887" y="1050.777" style="fill:#AEC3FF;" width="6.084" height="6.085"/>
			<rect x="969.688" y="1050.777" style="fill:#AEC3FF;" width="6.085" height="6.085"/>
			<rect x="985.487" y="1050.777" style="fill:#AEC3FF;" width="6.085" height="6.085"/>
		</g>
		<g>
			<rect x="953.887" y="1064.332" style="fill:#AEC3FF;" width="6.084" height="6.085"/>
			<rect x="969.688" y="1064.332" style="fill:#AEC3FF;" width="6.085" height="6.085"/>
			<rect x="985.487" y="1064.332" style="fill:#AEC3FF;" width="6.085" height="6.085"/>
		</g>
		<g>
			<rect x="953.887" y="1079.351" style="fill:#AEC3FF;" width="6.084" height="6.084"/>
			<rect x="969.688" y="1079.351" style="fill:#AEC3FF;" width="6.085" height="6.084"/>
			<rect x="985.487" y="1079.351" style="fill:#AEC3FF;" width="6.085" height="6.084"/>
		</g>
	</g>
	<g>
		<g>
			<path style="fill:#233862;" d="M1017.282,1217.491l9.855-1.457c1.089-0.161,1.556-1.281,1.104-2.653l-9.595-29.206
				c-0.575-1.75-2.372-3.163-3.761-2.957l-9.855,1.457c-1.089,0.161-1.556,1.281-1.105,2.653l9.595,29.205
				C1014.096,1216.284,1015.893,1217.697,1017.282,1217.491z"/>
			<path style="fill:#192E4F;" d="M1020.772,1216.976l9.855-1.458c1.089-0.161,1.555-1.281,1.104-2.653l-9.595-29.205
				c-0.575-1.751-2.372-3.163-3.761-2.958l-9.855,1.458c-1.089,0.161-1.555,1.28-1.104,2.653l9.595,29.205
				C1017.586,1215.768,1019.383,1217.181,1020.772,1216.976z"/>
			<path style="fill:#192E4F;" d="M1011.259,1187.49L1011.259,1187.49c0.287-0.043,0.431-0.379,0.32-0.747l-7.79-25.827
				c-0.111-0.368-0.437-0.635-0.724-0.593l0,0c-0.287,0.043-0.431,0.379-0.32,0.747l7.79,25.827
				C1010.646,1187.266,1010.972,1187.532,1011.259,1187.49z"/>
		</g>
		<path style="fill:#FFB27D;" d="M1008.657,1089.439c0,0-7.116-12.106-12.762-16.592c-5.646-4.486-20.56-5.737-21.139-4.589
			c-1.791,3.553,5.912,8.677,7.514,11.938c1.602,3.262,0.915,7.955,8.504,11.796c7.836,3.966,12.383,6.569,12.383,6.569
			L1008.657,1089.439z"/>
		<path style="fill:#233862;" d="M1002.644,1087.79c3.658-5.693,4.752-5.988,4.752-5.988s60.506,24.134,66.281,26.149
			c5.775,2.015,92.102,7.09,92.102,7.09l26.053,57.263c0,0-115.042-26.237-129.572-31.63c-24.013-8.911-62.53-43.815-62.53-43.815
			S999.77,1092.262,1002.644,1087.79z"/>
		<path style="fill:#163560;" d="M1152.959,1623.202c0,0-1.317,21.239-5.262,26.234h-60.692c0.384-2.118,2.102-7.347,9.69-8.672
			c9.59-1.668,25.643-8.406,31.447-21.081C1134.255,1606.35,1152.959,1623.202,1152.959,1623.202z"/>
		<path style="fill:#163560;" d="M1260.662,1620.24c0,0,3.783,27.589-1.413,28.065c-0.691,0.063-23.083,0.052-31.846,0
			c-10.914-0.063-28.344,0.068-28.344,0.068c-2.255,0.094-3.732-2.349-2.584-4.291c1.26-2.132,3.663-4.408,8.245-5.29
			c9.558-1.84,25.486-8.859,31.07-21.633C1241.666,1603.722,1260.662,1620.24,1260.662,1620.24z"/>
		<path style="fill:#ED823A;" d="M1124.422,1340.538c0,0,15.261,53.4,58.998,146.131c43.738,92.73,47.113,134.989,47.113,134.989
			l30.129-1.418c0,0-2.833-110.374-23.492-157.17c-20.66-46.797-24.87-174.852-24.87-174.852L1124.422,1340.538z"/>
		<path style="fill:#FF9E55;" d="M1099.921,1294.593c0,0-1.215,82.687,13.091,184.212c14.307,101.524,9.457,144.62,9.457,144.62
			l34.265,1.14c0,0,20.477-101.563,14.606-152.379c-5.871-50.815,28.041-174.37,28.041-174.37L1099.921,1294.593z"/>
		<path style="fill:#FFB27D;" d="M1167.532,1101.094l-16.161,11.97l-23.356-4.917c0.323-2.13,1.865-10.957,3.27-18.953
			c0.084-0.472,0.169-0.943,0.249-1.404c1.203-6.803,2.241-12.647,2.241-12.647l21.814-10.873l8.133-4.054
			c-0.021,0.144-0.63,7.551-0.715,8.632C1161.481,1088.049,1167.532,1101.094,1167.532,1101.094z"/>
		<path style="fill:#163560;" d="M1129.649,1095.055c0.512-0.216,31.772-9.44,35.168-8.318c3.396,1.121,5.406,7.691,5.406,7.691
			l-48.262,13.747C1121.962,1108.175,1123.117,1097.805,1129.649,1095.055z"/>
		<path style="fill:#2A4E96;" d="M1213.824,1304.8c-5.29,24.17-115.762-51.673-114.291-66.423c0.162-1.62,0.324-3.253,0.486-4.872
			c2.038-20.54,3.995-40.634,4.129-53.751c0.108-11.377,1.673-23.01,3.765-33.576c1.917-9.758,4.278-18.61,6.329-25.506
			c1.444-4.858,4.144-9.137,7.72-12.497c2.537-2.389,5.52-4.305,8.812-5.614c0.891-0.377,1.809-0.688,2.74-0.958
			c13.306-3.859,31.714-8.637,36.707-7.179c13.522,3.98,23.563,27.772,30.674,58.109
			C1214.201,1209.321,1217.278,1289.051,1213.824,1304.8z"/>
		<path style="fill:#FCA56B;" d="M1161.37,1069.186c-4.79,9.167-22.641,17.094-30.085,20.008c0.084-0.472,0.169-0.943,0.249-1.404
			c1.203-6.803,2.241-12.647,2.241-12.647l21.814-10.873C1160.411,1064.194,1163.346,1065.413,1161.37,1069.186z"/>
		<path style="fill:#FFB27D;" d="M1123.173,1073.864c0,0,39.356,12.277,46.624-12.35c7.268-24.626,17.243-39.627-7.578-48.507
			s-32.498-0.93-36.923,6.699C1120.871,1027.337,1113.124,1070.036,1123.173,1073.864z"/>
		<path style="fill:#163560;" d="M1126.842,1017.335c0,0,2.51,28.657,8.437,27.413s11.301-2.166,10.434,6.473
			c-0.868,8.638-9.086,18.613,9.179,20.142c18.264,1.528,44.521-45.575,39.503-54.493
			C1179.917,991.137,1105.917,985.943,1126.842,1017.335z"/>
		<path style="fill:#233862;" d="M1102.866,1294.593c10.941,3.954-0.189-10.872,0-13.963c0.85-13.59-4.481-30.769-2.848-47.125
			l66.819-39.94C1166.837,1193.564,1182.69,1293.958,1102.866,1294.593z"/>
		<path style="fill:#FF9E55;" d="M1213.824,1304.8c-28.524,52.865-33.067,73.053-33.067,73.053
			c-24.826-2.829-67.367-51.637-80.86-64.665c0,0-1.834-60.061-0.363-74.811l20.621-0.594c0,0,37.274,9.446,46.937-3.374
			s5.479-75.749,5.479-75.749l28.326-6.127C1214.201,1209.321,1221.479,1290.61,1213.824,1304.8z"/>
		<path style="fill:#FFB27D;" d="M1051.081,1203.668c0,0-8.146-1.589-10.267-3.331c-3.136-2.575-5.599-6.89-7.135-7.367
			c-2.575-0.801-8.9-8.749-9.43-9.311c-0.206-0.218-1.912,0.608-1.497,1.917c0.419,1.319,1.365,4.161,1.704,5.187
			c1.496,4.516,1.425,5.91-3.978,4.157c-0.696-0.226-13.181-4.187-14.462-1.355c-1.28,2.83,3.89,16.461,10.402,19.401
			c6.513,2.94,22.589,0.284,23.749,0.621C1049.997,1216.444,1051.081,1203.668,1051.081,1203.668z"/>
		<path style="fill:#2A4E96;" d="M1044.445,1201.012c0,0,66.271,11.267,72.143,8.407c9.373-4.563-3.637-71.802-3.637-71.802
			s-0.559-15.238,17.241-18.832c15.468-3.123,30.391,8.463,30.391,8.463s13.573,12.145,11.838,25.614
			c-3.844,29.858-9.823,90.587-29.794,99.896c-25.758,12.007-100.294-33.294-100.294-33.294s-2.482-3.039-2.129-8.684
			C1040.515,1205.803,1044.445,1201.012,1044.445,1201.012z"/>
		<path style="fill:#FF9E55;" d="M1178.062,1157.473l-5.493,1.188c0,0-11.606-50.242-50.607-50.485
			c2.537-2.389,5.52-4.305,8.812-5.614C1145.065,1106.394,1169.883,1118.606,1178.062,1157.473z"/>
		<path style="fill:#FFB27D;" d="M986.887,1082.904c0,0-10.745-6.59-11.248-3.764c-0.25,1.406,4.526,5.263,6.447,6.909
			c1.92,1.646,6.818,4.879,6.818,4.879L986.887,1082.904z"/>
	</g>
	<path style="fill:#2E3552;" d="M3027.106,1658.491H138.751c-2.129,0-3.871-1.742-3.871-3.871v-2.948
		c0-2.129,1.742-3.871,3.871-3.871h2888.356c2.129,0,3.87,1.742,3.87,3.871v2.948
		C3030.977,1656.749,3029.235,1658.491,3027.106,1658.491z"/>
</g>
</svg>
